 <svg width="22" height="22" viewBox="0 0 87 87" fill="none" xmlns="http://www.w3.org/2000/svg">
<rect x="13" y="26" width="64" height="51" fill="#0B192C" stroke="#FFFCFC" stroke-width="4"/>
<mask id="path-2-inside-1_2377_40" fill="white">
<path fill-rule="evenodd" clip-rule="evenodd" d="M12.2929 1H78.1174L85.2558 24.1831C85.9705 25.109 86.5094 26.2224 86.7905 27.4619C87.6958 31.4536 85.5838 35.2404 82.0732 35.9199C78.5627 36.5995 74.983 33.9144 74.0777 29.9227C74.0545 29.8201 74.0332 29.7176 74.0139 29.6154H72.9406C72.9406 33.6938 70.0329 37 66.4462 37C62.8594 37 59.9518 33.6938 59.9518 29.6154H57.9535C57.9535 33.6938 55.0459 37 51.4591 37C47.8724 37 44.9647 33.6938 44.9647 29.6154H43.9656C43.9656 33.6938 41.058 37 37.4712 37C33.8844 37 30.9768 33.6938 30.9768 29.6154H29.9776C29.9776 33.6938 27.0699 37 23.4832 37C19.9014 37 16.9969 33.703 16.9888 29.6325C16.9807 33.703 14.0761 37 10.4944 37C6.90764 37 4 33.6938 4 29.6154C4 27.9705 4.47297 26.4512 5.2727 25.2238L12.2929 1Z"/>
</mask>
<path fill-rule="evenodd" clip-rule="evenodd" d="M12.2929 1H78.1174L85.2558 24.1831C85.9705 25.109 86.5094 26.2224 86.7905 27.4619C87.6958 31.4536 85.5838 35.2404 82.0732 35.9199C78.5627 36.5995 74.983 33.9144 74.0777 29.9227C74.0545 29.8201 74.0332 29.7176 74.0139 29.6154H72.9406C72.9406 33.6938 70.0329 37 66.4462 37C62.8594 37 59.9518 33.6938 59.9518 29.6154H57.9535C57.9535 33.6938 55.0459 37 51.4591 37C47.8724 37 44.9647 33.6938 44.9647 29.6154H43.9656C43.9656 33.6938 41.058 37 37.4712 37C33.8844 37 30.9768 33.6938 30.9768 29.6154H29.9776C29.9776 33.6938 27.0699 37 23.4832 37C19.9014 37 16.9969 33.703 16.9888 29.6325C16.9807 33.703 14.0761 37 10.4944 37C6.90764 37 4 33.6938 4 29.6154C4 27.9705 4.47297 26.4512 5.2727 25.2238L12.2929 1Z" fill="#0B192C"/>
<path d="M78.1174 1L80.0288 0.411437L79.5942 -1H78.1174V1ZM12.2929 1V-1H10.7902L10.3719 0.443298L12.2929 1ZM85.2558 24.1831L83.3444 24.7716L83.4511 25.1181L83.6726 25.4051L85.2558 24.1831ZM86.7905 27.4619L88.741 27.0195L88.741 27.0195L86.7905 27.4619ZM82.0732 35.9199L81.6932 33.9564L81.6932 33.9564L82.0732 35.9199ZM74.0777 29.9227L72.1273 30.365L72.1273 30.365L74.0777 29.9227ZM74.0139 29.6154L75.9792 29.2443L75.6716 27.6154H74.0139V29.6154ZM72.9406 29.6154V27.6154H70.9406V29.6154H72.9406ZM59.9518 29.6154H61.9518V27.6154H59.9518V29.6154ZM57.9535 29.6154V27.6154H55.9535V29.6154H57.9535ZM44.9647 29.6154H46.9647V27.6154H44.9647V29.6154ZM43.9656 29.6154V27.6154H41.9656V29.6154H43.9656ZM30.9768 29.6154H32.9768V27.6154H30.9768V29.6154ZM29.9776 29.6154V27.6154H27.9776V29.6154H29.9776ZM16.9888 29.6325L18.9888 29.6285H14.9888L16.9888 29.6325ZM5.2727 25.2238L6.9484 26.3156L7.11083 26.0663L7.19366 25.7805L5.2727 25.2238ZM78.1174 -1H12.2929V3H78.1174V-1ZM87.1673 23.5945L80.0288 0.411437L76.2059 1.58856L83.3444 24.7716L87.1673 23.5945ZM83.6726 25.4051C84.2111 26.1028 84.6238 26.9507 84.84 27.9042L88.741 27.0195C88.395 25.4942 87.7298 24.1151 86.8391 22.9611L83.6726 25.4051ZM84.84 27.9042C85.5564 31.0629 83.8422 33.5404 81.6932 33.9564L82.4533 37.8835C87.3254 36.9404 89.8352 31.8443 88.741 27.0195L84.84 27.9042ZM81.6932 33.9564C79.4725 34.3863 76.75 32.6631 76.0282 29.4803L72.1273 30.365C73.216 35.1657 77.653 38.8127 82.4533 37.8835L81.6932 33.9564ZM76.0282 29.4804C76.0103 29.4015 75.994 29.3227 75.9792 29.2443L72.0486 29.9865C72.0724 30.1126 72.0986 30.2387 72.1273 30.365L76.0282 29.4804ZM72.9406 31.6154H74.0139V27.6154H72.9406V31.6154ZM66.4462 39C71.3712 39 74.9406 34.5492 74.9406 29.6154H70.9406C70.9406 32.8384 68.6947 35 66.4462 35V39ZM57.9518 29.6154C57.9518 34.5492 61.5212 39 66.4462 39V35C64.1977 35 61.9518 32.8384 61.9518 29.6154H57.9518ZM57.9535 31.6154H59.9518V27.6154H57.9535V31.6154ZM51.4591 39C56.3841 39 59.9535 34.5492 59.9535 29.6154H55.9535C55.9535 32.8384 53.7077 35 51.4591 35V39ZM42.9647 29.6154C42.9647 34.5492 46.5341 39 51.4591 39V35C49.2106 35 46.9647 32.8384 46.9647 29.6154H42.9647ZM43.9656 31.6154H44.9647V27.6154H43.9656V31.6154ZM37.4712 39C42.3962 39 45.9656 34.5492 45.9656 29.6154H41.9656C41.9656 32.8384 39.7197 35 37.4712 35V39ZM28.9768 29.6154C28.9768 34.5492 32.5462 39 37.4712 39V35C35.2227 35 32.9768 32.8384 32.9768 29.6154H28.9768ZM29.9776 31.6154H30.9768V27.6154H29.9776V31.6154ZM23.4832 39C28.4082 39 31.9776 34.5492 31.9776 29.6154H27.9776C27.9776 32.8384 25.7317 35 23.4832 35V39ZM14.9888 29.6365C14.9986 34.5614 18.5652 39 23.4832 39V35C21.2376 35 18.9952 32.8447 18.9888 29.6285L14.9888 29.6365ZM10.4944 39C15.4123 39 18.979 34.5614 18.9888 29.6365L14.9888 29.6285C14.9824 32.8447 12.7399 35 10.4944 35V39ZM2 29.6154C2 34.5492 5.56941 39 10.4944 39V35C8.24587 35 6 32.8384 6 29.6154H2ZM3.597 24.132C2.58327 25.6879 2 27.5872 2 29.6154H6C6 28.3538 6.36267 27.2146 6.9484 26.3156L3.597 24.132ZM10.3719 0.443298L3.35174 24.6671L7.19366 25.7805L14.2138 1.5567L10.3719 0.443298Z" fill="#FFFCFC" mask="url(#path-2-inside-1_2377_40)"/>
<line x1="17.0026" y1="28.9274" x2="18.9671" y2="1.92539" stroke="#FFFCFC" stroke-width="4"/>
<line x1="31.2996" y1="31.0393" x2="31" y2="1.00997" stroke="#FFFCFC" stroke-width="4"/>
<line x1="45.0002" y1="30.0195" x2="44.4344" y2="0.997632" stroke="#FFFCFC" stroke-width="4"/>
<line x1="60.0016" y1="29.0558" x2="58.4358" y2="1.03393" stroke="#FFFCFC" stroke-width="4"/>
<line x1="73.7929" y1="29.0505" x2="70.0184" y2="1.23331" stroke="#FFFCFC" stroke-width="4"/>
<line x1="4.98171" y1="29.5001" x2="86.9817" y2="28.5001" stroke="#FFFCFC" stroke-width="3"/>
<rect x="54" y="55" width="17" height="22" fill="#FDFDFD" stroke="#FFFCFC" stroke-width="4"/>
<rect x="25" y="44" width="20" height="11" fill="#0B192C" stroke="#FFFCFC" stroke-width="4"/>
<line x1="36" y1="43" x2="36" y2="55" stroke="#FFFCFC" stroke-width="4"/>
<path d="M38 68C38 77.9168 29.7419 86 19.5 86C9.25809 86 1 77.9168 1 68C1 58.0832 9.25809 50 19.5 50C29.7419 50 38 58.0832 38 68Z" fill="#0B192C" stroke="#FFFCFC" stroke-width="4"/>
<mask id="path-14-inside-2_2377_40" fill="white">
<path fill-rule="evenodd" clip-rule="evenodd" d="M21.8 57H17.2V65.6425H8V70.3568H17.2V79H21.8V70.3568H31V65.6425H21.8V57Z"/>
</mask>
<path fill-rule="evenodd" clip-rule="evenodd" d="M21.8 57H17.2V65.6425H8V70.3568H17.2V79H21.8V70.3568H31V65.6425H21.8V57Z" fill="white"/>
<path d="M17.2 57V55H15.2V57H17.2ZM21.8 57H23.8V55H21.8V57ZM17.2 65.6425V67.6425H19.2V65.6425H17.2ZM8 65.6425V63.6425H6V65.6425H8ZM8 70.3568H6V72.3568H8V70.3568ZM17.2 70.3568H19.2V68.3568H17.2V70.3568ZM17.2 79H15.2V81H17.2V79ZM21.8 79V81H23.8V79H21.8ZM21.8 70.3568V68.3568H19.8V70.3568H21.8ZM31 70.3568V72.3568H33V70.3568H31ZM31 65.6425H33V63.6425H31V65.6425ZM21.8 65.6425H19.8V67.6425H21.8V65.6425ZM17.2 59H21.8V55H17.2V59ZM19.2 65.6425V57H15.2V65.6425H19.2ZM8 67.6425H17.2V63.6425H8V67.6425ZM10 70.3568V65.6425H6V70.3568H10ZM17.2 68.3568H8V72.3568H17.2V68.3568ZM19.2 79V70.3568H15.2V79H19.2ZM21.8 77H17.2V81H21.8V77ZM19.8 70.3568V79H23.8V70.3568H19.8ZM31 68.3568H21.8V72.3568H31V68.3568ZM29 65.6425V70.3568H33V65.6425H29ZM21.8 67.6425H31V63.6425H21.8V67.6425ZM19.8 57V65.6425H23.8V57H19.8Z" fill="#FFFCFC" mask="url(#path-14-inside-2_2377_40)"/>
</svg>