<svg width="22" height="22" viewBox="0 0 87 87" fill="none" xmlns="http://www.w3.org/2000/svg">
<rect x="13" y="25.022" width="64" height="51" fill="white" stroke="#010101" stroke-width="4"/>
<mask id="path-2-inside-1_2377_40" fill="white">
<path fill-rule="evenodd" clip-rule="evenodd" d="M12.2929 0.0219727H78.1174L85.2558 23.2051C85.9705 24.1309 86.5094 25.2444 86.7905 26.4838C87.6958 30.4756 85.5838 34.2624 82.0732 34.9419C78.5627 35.6215 74.983 32.9364 74.0777 28.9447C74.0545 28.8421 74.0332 28.7396 74.0139 28.6374H72.9406C72.9406 32.7158 70.0329 36.022 66.4462 36.022C62.8594 36.022 59.9518 32.7158 59.9518 28.6374H57.9535C57.9535 32.7158 55.0459 36.022 51.4591 36.022C47.8724 36.022 44.9647 32.7158 44.9647 28.6374H43.9656C43.9656 32.7158 41.058 36.022 37.4712 36.022C33.8844 36.022 30.9768 32.7158 30.9768 28.6374H29.9776C29.9776 32.7158 27.0699 36.022 23.4832 36.022C19.9014 36.022 16.9969 32.725 16.9888 28.6545C16.9807 32.725 14.0761 36.022 10.4944 36.022C6.90764 36.022 4 32.7158 4 28.6374C4 26.9925 4.47297 25.4732 5.2727 24.2458L12.2929 0.0219727Z"/>
</mask>
<path fill-rule="evenodd" clip-rule="evenodd" d="M12.2929 0.0219727H78.1174L85.2558 23.2051C85.9705 24.1309 86.5094 25.2444 86.7905 26.4838C87.6958 30.4756 85.5838 34.2624 82.0732 34.9419C78.5627 35.6215 74.983 32.9364 74.0777 28.9447C74.0545 28.8421 74.0332 28.7396 74.0139 28.6374H72.9406C72.9406 32.7158 70.0329 36.022 66.4462 36.022C62.8594 36.022 59.9518 32.7158 59.9518 28.6374H57.9535C57.9535 32.7158 55.0459 36.022 51.4591 36.022C47.8724 36.022 44.9647 32.7158 44.9647 28.6374H43.9656C43.9656 32.7158 41.058 36.022 37.4712 36.022C33.8844 36.022 30.9768 32.7158 30.9768 28.6374H29.9776C29.9776 32.7158 27.0699 36.022 23.4832 36.022C19.9014 36.022 16.9969 32.725 16.9888 28.6545C16.9807 32.725 14.0761 36.022 10.4944 36.022C6.90764 36.022 4 32.7158 4 28.6374C4 26.9925 4.47297 25.4732 5.2727 24.2458L12.2929 0.0219727Z" fill="white"/>
<path d="M78.1174 0.0219727L80.0288 -0.566591L79.5942 -1.97803H78.1174V0.0219727ZM12.2929 0.0219727V-1.97803H10.7902L10.3719 -0.534729L12.2929 0.0219727ZM85.2558 23.2051L83.3444 23.7936L83.4511 24.1401L83.6726 24.4271L85.2558 23.2051ZM86.7905 26.4838L88.741 26.0415L88.741 26.0415L86.7905 26.4838ZM82.0732 34.9419L81.6932 32.9784L81.6932 32.9784L82.0732 34.9419ZM74.0777 28.9447L72.1273 29.3869L72.1273 29.387L74.0777 28.9447ZM74.0139 28.6374L75.9792 28.2663L75.6716 26.6374H74.0139V28.6374ZM72.9406 28.6374V26.6374H70.9406V28.6374H72.9406ZM59.9518 28.6374H61.9518V26.6374H59.9518V28.6374ZM57.9535 28.6374V26.6374H55.9535V28.6374H57.9535ZM44.9647 28.6374H46.9647V26.6374H44.9647V28.6374ZM43.9656 28.6374V26.6374H41.9656V28.6374H43.9656ZM30.9768 28.6374H32.9768V26.6374H30.9768V28.6374ZM29.9776 28.6374V26.6374H27.9776V28.6374H29.9776ZM16.9888 28.6545L18.9888 28.6505H14.9888L16.9888 28.6545ZM5.2727 24.2458L6.9484 25.3376L7.11083 25.0883L7.19366 24.8025L5.2727 24.2458ZM78.1174 -1.97803H12.2929V2.02197H78.1174V-1.97803ZM87.1673 22.6165L80.0288 -0.566591L76.2059 0.610536L83.3444 23.7936L87.1673 22.6165ZM83.6726 24.4271C84.2111 25.1248 84.6238 25.9726 84.84 26.9262L88.741 26.0415C88.395 24.5162 87.7298 23.1371 86.8391 21.983L83.6726 24.4271ZM84.84 26.9262C85.5564 30.0848 83.8422 32.5624 81.6932 32.9784L82.4533 36.9055C87.3254 35.9624 89.8352 30.8663 88.741 26.0415L84.84 26.9262ZM81.6932 32.9784C79.4725 33.4082 76.75 31.6851 76.0282 28.5023L72.1273 29.387C73.216 34.1877 77.653 37.8347 82.4533 36.9055L81.6932 32.9784ZM76.0282 28.5024C76.0103 28.4234 75.994 28.3447 75.9792 28.2663L72.0486 29.0084C72.0724 29.1345 72.0986 29.2607 72.1273 29.3869L76.0282 28.5024ZM72.9406 30.6374H74.0139V26.6374H72.9406V30.6374ZM66.4462 38.022C71.3712 38.022 74.9406 33.5712 74.9406 28.6374H70.9406C70.9406 31.8603 68.6947 34.022 66.4462 34.022V38.022ZM57.9518 28.6374C57.9518 33.5712 61.5212 38.022 66.4462 38.022V34.022C64.1977 34.022 61.9518 31.8603 61.9518 28.6374H57.9518ZM57.9535 30.6374H59.9518V26.6374H57.9535V30.6374ZM51.4591 38.022C56.3841 38.022 59.9535 33.5712 59.9535 28.6374H55.9535C55.9535 31.8603 53.7077 34.022 51.4591 34.022V38.022ZM42.9647 28.6374C42.9647 33.5712 46.5341 38.022 51.4591 38.022V34.022C49.2106 34.022 46.9647 31.8603 46.9647 28.6374H42.9647ZM43.9656 30.6374H44.9647V26.6374H43.9656V30.6374ZM37.4712 38.022C42.3962 38.022 45.9656 33.5712 45.9656 28.6374H41.9656C41.9656 31.8603 39.7197 34.022 37.4712 34.022V38.022ZM28.9768 28.6374C28.9768 33.5712 32.5462 38.022 37.4712 38.022V34.022C35.2227 34.022 32.9768 31.8603 32.9768 28.6374H28.9768ZM29.9776 30.6374H30.9768V26.6374H29.9776V30.6374ZM23.4832 38.022C28.4082 38.022 31.9776 33.5712 31.9776 28.6374H27.9776C27.9776 31.8603 25.7317 34.022 23.4832 34.022V38.022ZM14.9888 28.6585C14.9986 33.5834 18.5652 38.022 23.4832 38.022V34.022C21.2376 34.022 18.9952 31.8667 18.9888 28.6505L14.9888 28.6585ZM10.4944 38.022C15.4123 38.022 18.979 33.5834 18.9888 28.6585L14.9888 28.6505C14.9824 31.8667 12.7399 34.022 10.4944 34.022V38.022ZM2 28.6374C2 33.5712 5.56941 38.022 10.4944 38.022V34.022C8.24587 34.022 6 31.8603 6 28.6374H2ZM3.597 23.154C2.58327 24.7098 2 26.6092 2 28.6374H6C6 27.3758 6.36267 26.2366 6.9484 25.3376L3.597 23.154ZM10.3719 -0.534729L3.35174 23.6891L7.19366 24.8025L14.2138 0.578674L10.3719 -0.534729Z" fill="#010101" mask="url(#path-2-inside-1_2377_40)"/>
<line x1="17.0026" y1="27.9494" x2="18.9671" y2="0.947359" stroke="#010101" stroke-width="4"/>
<line x1="31.2996" y1="30.0612" x2="31" y2="0.031947" stroke="#010101" stroke-width="4"/>
<line x1="45.0002" y1="29.0415" x2="44.4344" y2="0.0196051" stroke="#010101" stroke-width="4"/>
<line x1="60.0016" y1="28.0778" x2="58.4358" y2="0.0559028" stroke="#010101" stroke-width="4"/>
<line x1="73.7929" y1="28.0724" x2="70.0184" y2="0.255282" stroke="#010101" stroke-width="4"/>
<line x1="4.98171" y1="28.5221" x2="86.9817" y2="27.5221" stroke="#010101" stroke-width="3"/>
<rect x="54" y="54.022" width="17" height="22" fill="#FDFDFD" stroke="#010101" stroke-width="4"/>
<rect x="25" y="43.022" width="20" height="11" fill="#FCFDFF" stroke="#010101" stroke-width="4"/>
<line x1="36" y1="42.022" x2="36" y2="54.022" stroke="#010101" stroke-width="4"/>
<path d="M38 67.022C38 76.9388 29.7419 85.022 19.5 85.022C9.25809 85.022 1 76.9388 1 67.022C1 57.1052 9.25809 49.022 19.5 49.022C29.7419 49.022 38 57.1052 38 67.022Z" fill="#F9F9F9" stroke="#010101" stroke-width="4"/>
<mask id="path-14-inside-2_2377_40" fill="white">
<path fill-rule="evenodd" clip-rule="evenodd" d="M21.8 56.022H17.2V64.6645H8V69.3788H17.2V78.022H21.8V69.3788H31V64.6645H21.8V56.022Z"/>
</mask>
<path fill-rule="evenodd" clip-rule="evenodd" d="M21.8 56.022H17.2V64.6645H8V69.3788H17.2V78.022H21.8V69.3788H31V64.6645H21.8V56.022Z" fill="black"/>
<path d="M17.2 56.022V54.022H15.2V56.022H17.2ZM21.8 56.022H23.8V54.022H21.8V56.022ZM17.2 64.6645V66.6645H19.2V64.6645H17.2ZM8 64.6645V62.6645H6V64.6645H8ZM8 69.3788H6V71.3788H8V69.3788ZM17.2 69.3788H19.2V67.3788H17.2V69.3788ZM17.2 78.022H15.2V80.022H17.2V78.022ZM21.8 78.022V80.022H23.8V78.022H21.8ZM21.8 69.3788V67.3788H19.8V69.3788H21.8ZM31 69.3788V71.3788H33V69.3788H31ZM31 64.6645H33V62.6645H31V64.6645ZM21.8 64.6645H19.8V66.6645H21.8V64.6645ZM17.2 58.022H21.8V54.022H17.2V58.022ZM19.2 64.6645V56.022H15.2V64.6645H19.2ZM8 66.6645H17.2V62.6645H8V66.6645ZM10 69.3788V64.6645H6V69.3788H10ZM17.2 67.3788H8V71.3788H17.2V67.3788ZM19.2 78.022V69.3788H15.2V78.022H19.2ZM21.8 76.022H17.2V80.022H21.8V76.022ZM19.8 69.3788V78.022H23.8V69.3788H19.8ZM31 67.3788H21.8V71.3788H31V67.3788ZM29 64.6645V69.3788H33V64.6645H29ZM21.8 66.6645H31V62.6645H21.8V66.6645ZM19.8 56.022V64.6645H23.8V56.022H19.8Z" fill="#010101" mask="url(#path-14-inside-2_2377_40)"/>
</svg>