<svg width="52" height="41" viewBox="0 0 52 41" fill="none" xmlns="http://www.w3.org/2000/svg">
<rect x="15.6667" y="1" width="20" height="19.6207" rx="4" fill="url(#paint0_linear_2352_319)" stroke="white" stroke-width="2"/>
<rect x="5" y="19.4414" width="20" height="19.6207" rx="4" fill="url(#paint1_linear_2352_319)" stroke="white" stroke-width="2"/>
<rect x="27" y="19.4414" width="20" height="19.6207" rx="4" fill="url(#paint2_linear_2352_319)" stroke="white" stroke-width="2"/>
<rect x="0.794878" y="38.3129" width="50.4102" height="1.58976" rx="0.794878" fill="url(#paint3_linear_2352_319)" stroke="white" stroke-width="1.58976"/>
<line x1="11.6665" y1="19.0771" x2="11.6665" y2="23.5285" stroke="white" stroke-width="2"/>
<path d="M11.3333 22.2104C10.781 22.2104 10.3333 22.6582 10.3333 23.2104C10.3333 23.7627 10.781 24.2104 11.3333 24.2104V22.2104ZM11.3333 24.2104H19.3333V22.2104H11.3333V24.2104Z" fill="white"/>
<line x1="19.6667" y1="19.0771" x2="19.6667" y2="23.5285" stroke="white" stroke-width="2"/>
<line x1="33.6665" y1="19.0771" x2="33.6665" y2="23.5285" stroke="white" stroke-width="2"/>
<path d="M33.3333 22.2104C32.781 22.2104 32.3333 22.6582 32.3333 23.2104C32.3333 23.7627 32.781 24.2104 33.3333 24.2104V22.2104ZM33.3333 24.2104H41.3333V22.2104H33.3333V24.2104Z" fill="white"/>
<line x1="41.6667" y1="19.0771" x2="41.6667" y2="23.5285" stroke="white" stroke-width="2"/>
<line x1="22.3333" y1="0.635742" x2="22.3333" y2="5.08706" stroke="white" stroke-width="2"/>
<path d="M22 3.76904C21.4477 3.76904 21 4.21676 21 4.76904C21 5.32133 21.4477 5.76904 22 5.76904V3.76904ZM22 5.76904H30V3.76904H22V5.76904Z" fill="white"/>
<line x1="30.3335" y1="0.635742" x2="30.3335" y2="5.08706" stroke="white" stroke-width="2"/>
<defs>
<linearGradient id="paint0_linear_2352_319" x1="25.6667" y1="0" x2="25.6667" y2="21.6207" gradientUnits="userSpaceOnUse">
<stop stop-color="#FFA620"/>
<stop offset="0.58" stop-color="#FFCD81"/>
<stop offset="1" stop-color="white"/>
</linearGradient>
<linearGradient id="paint1_linear_2352_319" x1="15" y1="18.4414" x2="15" y2="40.0621" gradientUnits="userSpaceOnUse">
<stop stop-color="#FFA620"/>
<stop offset="0.58" stop-color="#FFCD81"/>
<stop offset="1" stop-color="white"/>
</linearGradient>
<linearGradient id="paint2_linear_2352_319" x1="37" y1="18.4414" x2="37" y2="40.0621" gradientUnits="userSpaceOnUse">
<stop stop-color="#FFA620"/>
<stop offset="0.58" stop-color="#FFCD81"/>
<stop offset="1" stop-color="white"/>
</linearGradient>
<linearGradient id="paint3_linear_2352_319" x1="26" y1="37.5181" x2="26" y2="40.6976" gradientUnits="userSpaceOnUse">
<stop stop-color="#FFA620"/>
<stop offset="0.58" stop-color="#FFCD81"/>
<stop offset="1" stop-color="white"/>
</linearGradient>
</defs>
</svg>