     <svg width="52" height="41" viewBox="0 0 52 41" fill="none" xmlns="http://www.w3.org/2000/svg">
<rect x="15.1667" y="0.5" width="21" height="20.6207" rx="4.5" fill="url(#paint0_linear_2352_27)" stroke="#9C6F2A"/>
<rect x="4.5" y="18.9414" width="21" height="20.6207" rx="4.5" fill="url(#paint1_linear_2352_27)" stroke="#9C6F2A"/>
<rect x="26.5" y="18.9414" width="21" height="20.6207" rx="4.5" fill="url(#paint2_linear_2352_27)" stroke="#9C6F2A"/>
<rect x="0.5" y="38.0181" width="51" height="2.17951" rx="1.08976" fill="url(#paint3_linear_2352_27)" stroke="#9C6F2A"/>
<line x1="11.1665" y1="19.0771" x2="11.1665" y2="23.5285" stroke="#9C6F2A"/>
<path d="M11.3333 22.7104C11.0571 22.7104 10.8333 22.9343 10.8333 23.2104C10.8333 23.4866 11.0571 23.7104 11.3333 23.7104V22.7104ZM11.3333 23.7104H19.3333V22.7104H11.3333V23.7104Z" fill="#9C6F2A"/>
<line x1="19.1667" y1="19.0771" x2="19.1667" y2="23.5285" stroke="#9C6F2A"/>
<line x1="33.1665" y1="19.0771" x2="33.1665" y2="23.5285" stroke="#9C6F2A"/>
<path d="M33.3333 22.7104C33.0571 22.7104 32.8333 22.9343 32.8333 23.2104C32.8333 23.4866 33.0571 23.7104 33.3333 23.7104V22.7104ZM33.3333 23.7104H41.3333V22.7104H33.3333V23.7104Z" fill="#9C6F2A"/>
<line x1="41.1667" y1="19.0771" x2="41.1667" y2="23.5285" stroke="#9C6F2A"/>
<line x1="21.8333" y1="0.635742" x2="21.8333" y2="5.08706" stroke="#9C6F2A"/>
<path d="M22 4.26904C21.7239 4.26904 21.5 4.4929 21.5 4.76904C21.5 5.04519 21.7239 5.26904 22 5.26904V4.26904ZM22 5.26904H30V4.26904H22V5.26904Z" fill="#9C6F2A"/>
<line x1="29.8335" y1="0.635742" x2="29.8335" y2="5.08706" stroke="#9C6F2A"/>
<defs>
<linearGradient id="paint0_linear_2352_27" x1="25.6667" y1="0" x2="25.6667" y2="21.6207" gradientUnits="userSpaceOnUse">
<stop stop-color="#FFA620"/>
<stop offset="0.58" stop-color="#FFCD81"/>
<stop offset="1" stop-color="white"/>
</linearGradient>
<linearGradient id="paint1_linear_2352_27" x1="15" y1="18.4414" x2="15" y2="40.0621" gradientUnits="userSpaceOnUse">
<stop stop-color="#FFA620"/>
<stop offset="0.58" stop-color="#FFCD81"/>
<stop offset="1" stop-color="white"/>
</linearGradient>
<linearGradient id="paint2_linear_2352_27" x1="37" y1="18.4414" x2="37" y2="40.0621" gradientUnits="userSpaceOnUse">
<stop stop-color="#FFA620"/>
<stop offset="0.58" stop-color="#FFCD81"/>
<stop offset="1" stop-color="white"/>
</linearGradient>
<linearGradient id="paint3_linear_2352_27" x1="26" y1="37.5181" x2="26" y2="40.6976" gradientUnits="userSpaceOnUse">
<stop stop-color="#FFA620"/>
<stop offset="0.58" stop-color="#FFCD81"/>
<stop offset="1" stop-color="white"/>
</linearGradient>
</defs>
</svg>