<svg width="60" height="54" viewBox="0 0 60 54" fill="none" xmlns="http://www.w3.org/2000/svg">
<rect x="39.4041" y="7.94287" width="2.62765" height="4.94286" fill="#A43131" stroke="white" stroke-width="2"/>
<path d="M14.3078 20.6504C15.1198 16.4095 18.8293 13.3428 23.1473 13.3428H42.3905C46.7434 13.3428 50.4724 16.458 51.2469 20.7414L54.1864 36.9985C55.1849 42.5206 50.9416 47.5999 45.33 47.5999H20.0348C14.3856 47.5999 10.1331 42.456 11.1954 36.9076L14.3078 20.6504Z" fill="url(#paint0_linear_2352_255)" stroke="white" stroke-width="2"/>
<rect x="6.23926" y="41.8857" width="52.7606" height="11.1143" rx="3" fill="url(#paint1_linear_2352_255)" stroke="white" stroke-width="2"/>
<rect x="34.7764" y="20.2856" width="12.6542" height="6.48571" fill="white" stroke="white" stroke-width="2"/>
<rect x="34.0051" y="1" width="12.6542" height="6.48571" fill="white" stroke="white" stroke-width="2"/>
<line x1="17.5796" y1="21.3716" x2="27.6062" y2="21.3716" stroke="white" stroke-width="2"/>
<rect x="19.5078" y="28.1572" width="1.5424" height="0.771429" fill="#A43131" stroke="white" stroke-width="0.771429"/>
<rect x="19.5078" y="31.2431" width="1.5424" height="0.771429" fill="#A43131" stroke="white" stroke-width="0.771429"/>
<rect x="24.1355" y="31.2431" width="1.5424" height="0.771429" fill="#A43131" stroke="white" stroke-width="0.771429"/>
<rect x="24.1355" y="35.1001" width="1.5424" height="0.771429" fill="#A43131" stroke="white" stroke-width="0.771429"/>
<rect x="19.5078" y="35.1001" width="1.5424" height="0.771429" fill="#A43131" stroke="white" stroke-width="0.771429"/>
<rect x="24.1355" y="28.1572" width="1.5424" height="0.771429" fill="#A43131" stroke="white" stroke-width="0.771429"/>
<rect x="36.476" y="32.0141" width="1.5424" height="0.771429" fill="#A43131" stroke="white" stroke-width="0.771429"/>
<rect x="41.1037" y="32.0141" width="1.5424" height="0.771429" fill="#A43131" stroke="white" stroke-width="0.771429"/>
<rect x="45.7314" y="32.0141" width="1.5424" height="0.771429" fill="#A43131" stroke="white" stroke-width="0.771429"/>
<rect x="45.7314" y="35.1001" width="1.5424" height="0.771429" fill="#A43131" stroke="white" stroke-width="0.771429"/>
<rect x="41.1037" y="35.1001" width="1.5424" height="0.771429" fill="#A43131" stroke="white" stroke-width="0.771429"/>
<rect x="36.476" y="35.1001" width="1.5424" height="0.771429" fill="#A43131" stroke="white" stroke-width="0.771429"/>
<rect x="36.476" y="38.1855" width="1.5424" height="0.771429" fill="#A43131" stroke="white" stroke-width="0.771429"/>
<rect x="41.1037" y="38.1855" width="1.5424" height="0.771429" fill="#A43131" stroke="white" stroke-width="0.771429"/>
<rect x="45.7314" y="38.1855" width="1.5424" height="0.771429" fill="#A43131" stroke="white" stroke-width="0.771429"/>
<line x1="10.6382" y1="46.8286" x2="27.6062" y2="46.8286" stroke="white" stroke-width="2"/>
<line x1="37.6328" y1="46.8286" x2="54.6009" y2="46.8286" stroke="white" stroke-width="2"/>
<mask id="path-24-inside-1_2352_255" fill="white">
<ellipse cx="33.0052" cy="47.4427" rx="2.31383" ry="1.92857"/>
</mask>
<ellipse cx="33.0052" cy="47.4427" rx="2.31383" ry="1.92857" fill="#A43131"/>
<path d="M33.3191 47.4427C33.3191 47.3784 33.336 47.3234 33.3537 47.2884C33.3697 47.2568 33.3792 47.2548 33.3608 47.2701C33.3198 47.3043 33.2006 47.3713 33.0052 47.3713V51.3713C35.0312 51.3713 37.3191 49.938 37.3191 47.4427H33.3191ZM33.0052 47.3713C32.8099 47.3713 32.6906 47.3043 32.6496 47.2701C32.6313 47.2548 32.6407 47.2568 32.6567 47.2884C32.6745 47.3234 32.6914 47.3784 32.6914 47.4427H28.6914C28.6914 49.938 30.9793 51.3713 33.0052 51.3713V47.3713ZM32.6914 47.4427C32.6914 47.5071 32.6745 47.5621 32.6567 47.5971C32.6407 47.6287 32.6313 47.6307 32.6496 47.6153C32.6906 47.5812 32.8099 47.5142 33.0052 47.5142V43.5142C30.9793 43.5142 28.6914 44.9474 28.6914 47.4427H32.6914ZM33.0052 47.5142C33.2006 47.5142 33.3198 47.5812 33.3608 47.6153C33.3792 47.6307 33.3697 47.6287 33.3537 47.5971C33.336 47.5621 33.3191 47.5071 33.3191 47.4427H37.3191C37.3191 44.9474 35.0312 43.5142 33.0052 43.5142V47.5142Z" fill="white" mask="url(#path-24-inside-1_2352_255)"/>
<mask id="path-26-inside-2_2352_255" fill="white">
<path fill-rule="evenodd" clip-rule="evenodd" d="M9.77363 28.457C9.77363 26.8002 11.1168 25.457 12.7736 25.457H15.2577C16.9145 25.457 18.2577 26.8002 18.2577 28.457V29.2675C19.407 29.6758 20.4716 30.2451 21.42 30.9461L21.4777 30.9098C22.8807 30.0286 24.7323 30.4518 25.6133 31.855L26.9347 33.9598C27.8157 35.3631 27.3924 37.215 25.9893 38.0962L25.8567 38.1795C25.9317 38.6858 25.9704 39.203 25.9704 39.7286C25.9704 40.1553 25.9449 40.5764 25.8951 40.9907C27.2945 41.843 27.753 43.6647 26.9168 45.0796L25.6523 47.2191C24.8303 48.6098 23.0611 49.0939 21.6513 48.3358C20.6528 49.1122 19.517 49.7393 18.283 50.1806L18.2833 50.2284C18.2923 51.8853 16.9565 53.2357 15.2997 53.2448L12.8157 53.2584C11.1589 53.2674 9.8084 51.9316 9.79935 50.2748L9.79894 50.1986C8.85391 49.8653 7.9659 49.4231 7.15236 48.8884L6.96128 49.0165C5.58485 49.9387 3.72158 49.5705 2.79955 48.1939L1.41655 46.129C0.494521 44.7524 0.862885 42.8888 2.23931 41.9665L2.2925 41.9309C2.14056 41.2189 2.06086 40.4824 2.06086 39.7286C2.06086 39.3084 2.08563 38.8935 2.13388 38.4853L1.53963 38.1243C0.12363 37.264 -0.327059 35.4185 0.532989 34.0024L1.82305 31.8782C2.6831 30.462 4.5282 30.0114 5.9442 30.8717L6.36912 31.1299C7.3771 30.3443 8.52538 29.7109 9.77363 29.2675V28.457Z"/>
</mask>
<path fill-rule="evenodd" clip-rule="evenodd" d="M9.77363 28.457C9.77363 26.8002 11.1168 25.457 12.7736 25.457H15.2577C16.9145 25.457 18.2577 26.8002 18.2577 28.457V29.2675C19.407 29.6758 20.4716 30.2451 21.42 30.9461L21.4777 30.9098C22.8807 30.0286 24.7323 30.4518 25.6133 31.855L26.9347 33.9598C27.8157 35.3631 27.3924 37.215 25.9893 38.0962L25.8567 38.1795C25.9317 38.6858 25.9704 39.203 25.9704 39.7286C25.9704 40.1553 25.9449 40.5764 25.8951 40.9907C27.2945 41.843 27.753 43.6647 26.9168 45.0796L25.6523 47.2191C24.8303 48.6098 23.0611 49.0939 21.6513 48.3358C20.6528 49.1122 19.517 49.7393 18.283 50.1806L18.2833 50.2284C18.2923 51.8853 16.9565 53.2357 15.2997 53.2448L12.8157 53.2584C11.1589 53.2674 9.8084 51.9316 9.79935 50.2748L9.79894 50.1986C8.85391 49.8653 7.9659 49.4231 7.15236 48.8884L6.96128 49.0165C5.58485 49.9387 3.72158 49.5705 2.79955 48.1939L1.41655 46.129C0.494521 44.7524 0.862885 42.8888 2.23931 41.9665L2.2925 41.9309C2.14056 41.2189 2.06086 40.4824 2.06086 39.7286C2.06086 39.3084 2.08563 38.8935 2.13388 38.4853L1.53963 38.1243C0.12363 37.264 -0.327059 35.4185 0.532989 34.0024L1.82305 31.8782C2.6831 30.462 4.5282 30.0114 5.9442 30.8717L6.36912 31.1299C7.3771 30.3443 8.52538 29.7109 9.77363 29.2675V28.457Z" fill="white"/>
<path d="M18.2577 29.2675H16.2577V30.6795L17.5882 31.1522L18.2577 29.2675ZM21.42 30.9461L20.2312 32.5544L21.3284 33.3653L22.4837 32.6397L21.42 30.9461ZM21.4777 30.9098L20.4139 29.2162L20.4139 29.2162L21.4777 30.9098ZM25.6133 31.855L27.3071 30.7916V30.7916L25.6133 31.855ZM26.9347 33.9598L25.2409 35.0233V35.0233L26.9347 33.9598ZM25.9893 38.0962L27.0531 39.7899L27.0531 39.7899L25.9893 38.0962ZM25.8567 38.1795L24.793 36.4858L23.687 37.1805L23.8783 38.4724L25.8567 38.1795ZM25.8951 40.9907L23.9094 40.7524L23.7561 42.0297L24.8548 42.6988L25.8951 40.9907ZM26.9168 45.0796L25.195 44.062L25.195 44.062L26.9168 45.0796ZM25.6523 47.2191L27.374 48.2367L27.374 48.2367L25.6523 47.2191ZM21.6513 48.3358L22.5985 46.5743L21.4517 45.9576L20.4237 46.7569L21.6513 48.3358ZM18.283 50.1806L17.6095 48.2975L16.2753 48.7746L16.283 50.1916L18.283 50.1806ZM18.2833 50.2284L20.2832 50.2175V50.2175L18.2833 50.2284ZM15.2997 53.2448L15.2888 51.2448H15.2888L15.2997 53.2448ZM12.8157 53.2584L12.8266 55.2583H12.8266L12.8157 53.2584ZM9.79935 50.2748L7.79938 50.2857L7.79938 50.2857L9.79935 50.2748ZM9.79894 50.1986L11.7989 50.1877L11.7912 48.7806L10.4643 48.3125L9.79894 50.1986ZM7.15236 48.8884L8.25077 47.2171L7.14164 46.4881L6.03906 47.2269L7.15236 48.8884ZM6.96128 49.0165L8.07458 50.678L8.07458 50.678L6.96128 49.0165ZM2.79955 48.1939L4.46125 47.0809L4.46125 47.0809L2.79955 48.1939ZM1.41655 46.129L-0.24515 47.242L-0.24515 47.242L1.41655 46.129ZM2.23931 41.9665L3.35261 43.628H3.35261L2.23931 41.9665ZM2.2925 41.9309L3.4058 43.5924L4.53117 42.8383L4.24846 41.5135L2.2925 41.9309ZM2.13388 38.4853L4.12005 38.72L4.27093 37.4435L3.17235 36.776L2.13388 38.4853ZM1.53963 38.1243L0.501158 39.8335H0.501158L1.53963 38.1243ZM0.532989 34.0024L-1.17646 32.9642L-1.17646 32.9642L0.532989 34.0024ZM1.82305 31.8782L0.113606 30.84H0.113606L1.82305 31.8782ZM5.9442 30.8717L6.98267 29.1625L6.98267 29.1625L5.9442 30.8717ZM6.36912 31.1299L5.33064 32.8391L6.51008 33.5557L7.59857 32.7074L6.36912 31.1299ZM9.77363 29.2675L10.4431 31.1522L11.7736 30.6795V29.2675H9.77363ZM12.7736 23.457C10.0122 23.457 7.77363 25.6956 7.77363 28.457H11.7736C11.7736 27.9047 12.2213 27.457 12.7736 27.457V23.457ZM15.2577 23.457H12.7736V27.457H15.2577V23.457ZM20.2577 28.457C20.2577 25.6956 18.0191 23.457 15.2577 23.457V27.457C15.8099 27.457 16.2577 27.9047 16.2577 28.457H20.2577ZM20.2577 29.2675V28.457H16.2577V29.2675H20.2577ZM17.5882 31.1522C18.5522 31.4946 19.4417 31.9709 20.2312 32.5544L22.6087 29.3377C21.5015 28.5193 20.2619 27.857 18.9271 27.3829L17.5882 31.1522ZM22.4837 32.6397L22.5414 32.6035L20.4139 29.2162L20.3562 29.2524L22.4837 32.6397ZM22.5414 32.6035C23.009 32.3098 23.6259 32.4508 23.9194 32.9184L27.3071 30.7916C25.8388 28.4528 22.7525 27.7474 20.4139 29.2162L22.5414 32.6035ZM23.9194 32.9184L25.2409 35.0233L28.6286 32.8964L27.3071 30.7916L23.9194 32.9184ZM25.2409 35.0233C25.5346 35.4911 25.3934 36.1087 24.9256 36.4025L27.0531 39.7899C29.3914 38.3212 30.0968 35.235 28.6286 32.8964L25.2409 35.0233ZM24.9256 36.4025L24.793 36.4858L26.9204 39.8732L27.0531 39.7899L24.9256 36.4025ZM23.8783 38.4724C23.9389 38.8822 23.9704 39.3014 23.9704 39.7286H27.9704C27.9704 39.1045 27.9244 38.4895 27.8351 37.8866L23.8783 38.4724ZM23.9704 39.7286C23.9704 40.0754 23.9497 40.417 23.9094 40.7524L27.8809 41.229C27.9401 40.7359 27.9704 40.2352 27.9704 39.7286H23.9704ZM28.6385 46.0972C30.0322 43.7391 29.2682 40.7033 26.9355 39.2826L24.8548 42.6988C25.3209 42.9827 25.4737 43.5904 25.195 44.062L28.6385 46.0972ZM27.374 48.2367L28.6385 46.0972L25.195 44.062L23.9305 46.2015L27.374 48.2367ZM20.7041 50.0972C23.0552 51.3616 26.0039 50.555 27.374 48.2367L23.9305 46.2015C23.6568 46.6646 23.0671 46.8263 22.5985 46.5743L20.7041 50.0972ZM20.4237 46.7569C19.593 47.4027 18.6444 47.9273 17.6095 48.2975L18.9565 52.0638C20.3896 51.5513 21.7125 50.8216 22.8789 49.9147L20.4237 46.7569ZM16.283 50.1916L16.2833 50.2394L20.2832 50.2175L20.283 50.1697L16.283 50.1916ZM16.2833 50.2394C16.2863 50.7916 15.841 51.2418 15.2888 51.2448L15.3106 55.2447C18.072 55.2297 20.2983 52.9789 20.2832 50.2175L16.2833 50.2394ZM15.2888 51.2448L12.8048 51.2584L12.8266 55.2583L15.3106 55.2447L15.2888 51.2448ZM12.8048 51.2584C12.2525 51.2614 11.8023 50.8162 11.7993 50.2639L7.79938 50.2857C7.81447 53.0471 10.0652 55.2734 12.8266 55.2583L12.8048 51.2584ZM11.7993 50.2639L11.7989 50.1877L7.79897 50.2095L7.79938 50.2857L11.7993 50.2639ZM10.4643 48.3125C9.67174 48.033 8.92915 47.6629 8.25077 47.2171L6.05395 50.5598C7.00266 51.1833 8.03608 51.6976 9.13359 52.0847L10.4643 48.3125ZM8.07458 50.678L8.26566 50.5499L6.03906 47.2269L5.84799 47.355L8.07458 50.678ZM1.13785 49.3068C2.67465 51.6013 5.78041 52.2152 8.07458 50.678L5.84799 47.355C5.3893 47.6623 4.76852 47.5396 4.46125 47.0809L1.13785 49.3068ZM-0.24515 47.242L1.13785 49.3068L4.46125 47.0809L3.07825 45.016L-0.24515 47.242ZM1.12602 40.305C-1.16791 41.8421 -1.78179 44.9478 -0.24515 47.242L3.07825 45.016C2.77083 44.5571 2.89368 43.9355 3.35261 43.628L1.12602 40.305ZM1.17921 40.2694L1.12602 40.305L3.35261 43.628L3.4058 43.5924L1.17921 40.2694ZM4.24846 41.5135C4.12556 40.9375 4.06086 40.341 4.06086 39.7286H0.0608622C0.0608622 40.6239 0.155562 41.5002 0.336541 42.3483L4.24846 41.5135ZM4.06086 39.7286C4.06086 39.387 4.08099 39.0506 4.12005 38.72L0.147701 38.2506C0.0902725 38.7365 0.0608622 39.2297 0.0608622 39.7286H4.06086ZM0.501158 39.8335L1.09541 40.1946L3.17235 36.776L2.5781 36.415L0.501158 39.8335ZM-1.17646 32.9642C-2.6098 35.3244 -1.85872 38.3998 0.501158 39.8335L2.5781 36.415C2.10598 36.1282 1.95568 35.5127 2.24243 35.0406L-1.17646 32.9642ZM0.113606 30.84L-1.17646 32.9642L2.24243 35.0406L3.5325 32.9163L0.113606 30.84ZM6.98267 29.1625C4.62255 27.7286 1.54709 28.4796 0.113606 30.84L3.5325 32.9163C3.81911 32.4444 4.43385 32.2943 4.90573 32.581L6.98267 29.1625ZM7.40759 29.4206L6.98267 29.1625L4.90573 32.581L5.33064 32.8391L7.40759 29.4206ZM7.59857 32.7074C8.43704 32.0539 9.39614 31.524 10.4431 31.1522L9.1042 27.3829C7.65462 27.8978 6.31716 28.6347 5.13966 29.5524L7.59857 32.7074ZM7.77363 28.457V29.2675H11.7736V28.457H7.77363Z" fill="#CDC4C4" mask="url(#path-26-inside-2_2352_255)"/>
<path d="M18.8001 39.7286C18.8001 42.312 16.5469 44.5143 13.6299 44.5143C10.7129 44.5143 8.45972 42.312 8.45972 39.7286C8.45972 37.1451 10.7129 34.9429 13.6299 34.9429C16.5469 34.9429 18.8001 37.1451 18.8001 39.7286Z" fill="#FFF3F3" stroke="#CDC4C4" stroke-width="2"/>
<mask id="path-29-outside-3_2352_255" maskUnits="userSpaceOnUse" x="34.3008" y="20.0508" width="13" height="8" fill="black">
<rect fill="white" x="34.3008" y="20.0508" width="13" height="8"/>
<path d="M37.5508 25.0906C37.3368 25.0906 37.1545 25.0323 37.0039 24.9158C36.8533 24.7984 36.7383 24.6284 36.6587 24.4059C36.5792 24.1824 36.5394 23.9125 36.5394 23.5962C36.5394 23.2818 36.5792 23.0134 36.6587 22.7908C36.7392 22.5674 36.8548 22.3969 37.0053 22.2795C37.1568 22.1611 37.3387 22.1019 37.5508 22.1019C37.7629 22.1019 37.9442 22.1611 38.0948 22.2795C38.2463 22.3969 38.3619 22.5674 38.4414 22.7908C38.5219 23.0134 38.5621 23.2818 38.5621 23.5962C38.5621 23.9125 38.5224 24.1824 38.4428 24.4059C38.3633 24.6284 38.2482 24.7984 38.0977 24.9158C37.9471 25.0323 37.7648 25.0906 37.5508 25.0906ZM37.5508 24.7781C37.7629 24.7781 37.9277 24.6758 38.0451 24.4712C38.1625 24.2667 38.2212 23.975 38.2212 23.5962C38.2212 23.3443 38.1942 23.1299 38.1403 22.9528C38.0872 22.7757 38.0105 22.6407 37.9102 22.5479C37.8107 22.4551 37.6909 22.4087 37.5508 22.4087C37.3406 22.4087 37.1763 22.5124 37.0579 22.7198C36.9395 22.9263 36.8803 23.2184 36.8803 23.5962C36.8803 23.8481 36.9068 24.0621 36.9599 24.2383C37.0129 24.4144 37.0891 24.5484 37.1886 24.6403C37.2889 24.7321 37.4097 24.7781 37.5508 24.7781ZM39.2504 25.0735C39.1803 25.0735 39.1201 25.0484 39.07 24.9982C39.0198 24.948 38.9947 24.8879 38.9947 24.8178C38.9947 24.7478 39.0198 24.6876 39.07 24.6374C39.1201 24.5872 39.1803 24.5621 39.2504 24.5621C39.3204 24.5621 39.3806 24.5872 39.4308 24.6374C39.4809 24.6876 39.506 24.7478 39.506 24.8178C39.506 24.8642 39.4942 24.9068 39.4705 24.9457C39.4478 24.9845 39.417 25.0157 39.3782 25.0394C39.3403 25.0621 39.2977 25.0735 39.2504 25.0735ZM40.9492 25.0906C40.7352 25.0906 40.5529 25.0323 40.4023 24.9158C40.2518 24.7984 40.1367 24.6284 40.0572 24.4059C39.9776 24.1824 39.9379 23.9125 39.9379 23.5962C39.9379 23.2818 39.9776 23.0134 40.0572 22.7908C40.1377 22.5674 40.2532 22.3969 40.4038 22.2795C40.5553 22.1611 40.7371 22.1019 40.9492 22.1019C41.1613 22.1019 41.3427 22.1611 41.4933 22.2795C41.6448 22.3969 41.7603 22.5674 41.8398 22.7908C41.9203 23.0134 41.9606 23.2818 41.9606 23.5962C41.9606 23.9125 41.9208 24.1824 41.8413 24.4059C41.7617 24.6284 41.6467 24.7984 41.4961 24.9158C41.3455 25.0323 41.1632 25.0906 40.9492 25.0906ZM40.9492 24.7781C41.1613 24.7781 41.3261 24.6758 41.4435 24.4712C41.561 24.2667 41.6197 23.975 41.6197 23.5962C41.6197 23.3443 41.5927 23.1299 41.5387 22.9528C41.4857 22.7757 41.409 22.6407 41.3086 22.5479C41.2092 22.4551 41.0894 22.4087 40.9492 22.4087C40.739 22.4087 40.5747 22.5124 40.4563 22.7198C40.3379 22.9263 40.2788 23.2184 40.2788 23.5962C40.2788 23.8481 40.3053 24.0621 40.3583 24.2383C40.4113 24.4144 40.4876 24.5484 40.587 24.6403C40.6874 24.7321 40.8081 24.7781 40.9492 24.7781ZM43.4492 25.0906C43.2352 25.0906 43.0529 25.0323 42.9023 24.9158C42.7518 24.7984 42.6367 24.6284 42.5572 24.4059C42.4776 24.1824 42.4379 23.9125 42.4379 23.5962C42.4379 23.2818 42.4776 23.0134 42.5572 22.7908C42.6377 22.5674 42.7532 22.3969 42.9038 22.2795C43.0553 22.1611 43.2371 22.1019 43.4492 22.1019C43.6613 22.1019 43.8427 22.1611 43.9933 22.2795C44.1448 22.3969 44.2603 22.5674 44.3398 22.7908C44.4203 23.0134 44.4606 23.2818 44.4606 23.5962C44.4606 23.9125 44.4208 24.1824 44.3413 24.4059C44.2617 24.6284 44.1467 24.7984 43.9961 24.9158C43.8455 25.0323 43.6632 25.0906 43.4492 25.0906ZM43.4492 24.7781C43.6613 24.7781 43.8261 24.6758 43.9435 24.4712C44.061 24.2667 44.1197 23.975 44.1197 23.5962C44.1197 23.3443 44.0927 23.1299 44.0387 22.9528C43.9857 22.7757 43.909 22.6407 43.8086 22.5479C43.7092 22.4551 43.5894 22.4087 43.4492 22.4087C43.239 22.4087 43.0747 22.5124 42.9563 22.7198C42.8379 22.9263 42.7788 23.2184 42.7788 23.5962C42.7788 23.8481 42.8053 24.0621 42.8583 24.2383C42.9113 24.4144 42.9876 24.5484 43.087 24.6403C43.1874 24.7321 43.3081 24.7781 43.4492 24.7781Z"/>
</mask>
<path d="M37.5508 25.0906C37.3368 25.0906 37.1545 25.0323 37.0039 24.9158C36.8533 24.7984 36.7383 24.6284 36.6587 24.4059C36.5792 24.1824 36.5394 23.9125 36.5394 23.5962C36.5394 23.2818 36.5792 23.0134 36.6587 22.7908C36.7392 22.5674 36.8548 22.3969 37.0053 22.2795C37.1568 22.1611 37.3387 22.1019 37.5508 22.1019C37.7629 22.1019 37.9442 22.1611 38.0948 22.2795C38.2463 22.3969 38.3619 22.5674 38.4414 22.7908C38.5219 23.0134 38.5621 23.2818 38.5621 23.5962C38.5621 23.9125 38.5224 24.1824 38.4428 24.4059C38.3633 24.6284 38.2482 24.7984 38.0977 24.9158C37.9471 25.0323 37.7648 25.0906 37.5508 25.0906ZM37.5508 24.7781C37.7629 24.7781 37.9277 24.6758 38.0451 24.4712C38.1625 24.2667 38.2212 23.975 38.2212 23.5962C38.2212 23.3443 38.1942 23.1299 38.1403 22.9528C38.0872 22.7757 38.0105 22.6407 37.9102 22.5479C37.8107 22.4551 37.6909 22.4087 37.5508 22.4087C37.3406 22.4087 37.1763 22.5124 37.0579 22.7198C36.9395 22.9263 36.8803 23.2184 36.8803 23.5962C36.8803 23.8481 36.9068 24.0621 36.9599 24.2383C37.0129 24.4144 37.0891 24.5484 37.1886 24.6403C37.2889 24.7321 37.4097 24.7781 37.5508 24.7781ZM39.2504 25.0735C39.1803 25.0735 39.1201 25.0484 39.07 24.9982C39.0198 24.948 38.9947 24.8879 38.9947 24.8178C38.9947 24.7478 39.0198 24.6876 39.07 24.6374C39.1201 24.5872 39.1803 24.5621 39.2504 24.5621C39.3204 24.5621 39.3806 24.5872 39.4308 24.6374C39.4809 24.6876 39.506 24.7478 39.506 24.8178C39.506 24.8642 39.4942 24.9068 39.4705 24.9457C39.4478 24.9845 39.417 25.0157 39.3782 25.0394C39.3403 25.0621 39.2977 25.0735 39.2504 25.0735ZM40.9492 25.0906C40.7352 25.0906 40.5529 25.0323 40.4023 24.9158C40.2518 24.7984 40.1367 24.6284 40.0572 24.4059C39.9776 24.1824 39.9379 23.9125 39.9379 23.5962C39.9379 23.2818 39.9776 23.0134 40.0572 22.7908C40.1377 22.5674 40.2532 22.3969 40.4038 22.2795C40.5553 22.1611 40.7371 22.1019 40.9492 22.1019C41.1613 22.1019 41.3427 22.1611 41.4933 22.2795C41.6448 22.3969 41.7603 22.5674 41.8398 22.7908C41.9203 23.0134 41.9606 23.2818 41.9606 23.5962C41.9606 23.9125 41.9208 24.1824 41.8413 24.4059C41.7617 24.6284 41.6467 24.7984 41.4961 24.9158C41.3455 25.0323 41.1632 25.0906 40.9492 25.0906ZM40.9492 24.7781C41.1613 24.7781 41.3261 24.6758 41.4435 24.4712C41.561 24.2667 41.6197 23.975 41.6197 23.5962C41.6197 23.3443 41.5927 23.1299 41.5387 22.9528C41.4857 22.7757 41.409 22.6407 41.3086 22.5479C41.2092 22.4551 41.0894 22.4087 40.9492 22.4087C40.739 22.4087 40.5747 22.5124 40.4563 22.7198C40.3379 22.9263 40.2788 23.2184 40.2788 23.5962C40.2788 23.8481 40.3053 24.0621 40.3583 24.2383C40.4113 24.4144 40.4876 24.5484 40.587 24.6403C40.6874 24.7321 40.8081 24.7781 40.9492 24.7781ZM43.4492 25.0906C43.2352 25.0906 43.0529 25.0323 42.9023 24.9158C42.7518 24.7984 42.6367 24.6284 42.5572 24.4059C42.4776 24.1824 42.4379 23.9125 42.4379 23.5962C42.4379 23.2818 42.4776 23.0134 42.5572 22.7908C42.6377 22.5674 42.7532 22.3969 42.9038 22.2795C43.0553 22.1611 43.2371 22.1019 43.4492 22.1019C43.6613 22.1019 43.8427 22.1611 43.9933 22.2795C44.1448 22.3969 44.2603 22.5674 44.3398 22.7908C44.4203 23.0134 44.4606 23.2818 44.4606 23.5962C44.4606 23.9125 44.4208 24.1824 44.3413 24.4059C44.2617 24.6284 44.1467 24.7984 43.9961 24.9158C43.8455 25.0323 43.6632 25.0906 43.4492 25.0906ZM43.4492 24.7781C43.6613 24.7781 43.8261 24.6758 43.9435 24.4712C44.061 24.2667 44.1197 23.975 44.1197 23.5962C44.1197 23.3443 44.0927 23.1299 44.0387 22.9528C43.9857 22.7757 43.909 22.6407 43.8086 22.5479C43.7092 22.4551 43.5894 22.4087 43.4492 22.4087C43.239 22.4087 43.0747 22.5124 42.9563 22.7198C42.8379 22.9263 42.7788 23.2184 42.7788 23.5962C42.7788 23.8481 42.8053 24.0621 42.8583 24.2383C42.9113 24.4144 42.9876 24.5484 43.087 24.6403C43.1874 24.7321 43.3081 24.7781 43.4492 24.7781Z" fill="#14BBC7"/>
<path d="M37.0039 24.9158L35.774 26.493L35.7802 26.4978L37.0039 24.9158ZM36.6587 24.4059L34.7745 25.0765L34.7754 25.0791L36.6587 24.4059ZM36.6587 22.7908L34.7771 22.1131L34.7754 22.1177L36.6587 22.7908ZM37.0053 22.2795L38.2353 23.8566L38.2366 23.8555L37.0053 22.2795ZM38.0948 22.2795L36.8587 23.8518L36.8697 23.8603L38.0948 22.2795ZM38.4414 22.7908L36.5572 23.4615L36.5607 23.4711L38.4414 22.7908ZM38.4428 24.4059L40.3261 25.0791L40.327 25.0765L38.4428 24.4059ZM38.0977 24.9158L39.3214 26.4978L39.3276 26.4929L38.0977 24.9158ZM38.0451 24.4712L36.3106 23.4755L36.3106 23.4755L38.0451 24.4712ZM38.1403 22.9528L36.2243 23.5265L36.2272 23.5359L38.1403 22.9528ZM37.9102 22.5479L36.5455 24.0101L36.5524 24.0165L37.9102 22.5479ZM37.0579 22.7198L38.7929 23.7147L38.7949 23.7112L37.0579 22.7198ZM36.9599 24.2383L35.0448 24.8149V24.8149L36.9599 24.2383ZM37.1886 24.6403L35.8314 26.1094L35.8384 26.1157L37.1886 24.6403ZM37.5508 23.0906C37.6262 23.0906 37.7348 23.101 37.8622 23.1417C37.9922 23.1833 38.1173 23.2486 38.2277 23.3339L35.7802 26.4978C36.3243 26.9187 36.9518 27.0906 37.5508 27.0906V23.0906ZM38.2338 23.3387C38.4463 23.5044 38.5243 23.683 38.542 23.7327L34.7754 25.0791C34.9523 25.5739 35.2604 26.0924 35.774 26.4929L38.2338 23.3387ZM38.5429 23.7352C38.5529 23.7632 38.5515 23.7689 38.5479 23.7443C38.5442 23.7197 38.5394 23.6718 38.5394 23.5962H34.5394C34.5394 24.0696 34.5976 24.5794 34.7745 25.0765L38.5429 23.7352ZM38.5394 23.5962C38.5394 23.5221 38.5442 23.4756 38.5477 23.4522C38.5511 23.4288 38.5522 23.4355 38.542 23.464L34.7754 22.1177C34.5979 22.6144 34.5394 23.1236 34.5394 23.5962H38.5394ZM38.5404 23.4686C38.5241 23.5139 38.4475 23.691 38.2353 23.8566L35.7754 20.7024C35.262 21.1028 34.9544 21.6208 34.7771 22.1131L38.5404 23.4686ZM38.2366 23.8555C38.1299 23.9389 38.0062 24.0052 37.8744 24.0481C37.7448 24.0903 37.6322 24.1019 37.5508 24.1019V20.1019C36.9413 20.1019 36.3138 20.2817 35.774 20.7034L38.2366 23.8555ZM37.5508 24.1019C37.4695 24.1019 37.3561 24.0903 37.2254 24.0476C37.0922 24.0042 36.967 23.9369 36.8587 23.8518L39.3309 20.7072C38.7897 20.2817 38.1601 20.1019 37.5508 20.1019V24.1019ZM36.8697 23.8603C36.6544 23.6935 36.5754 23.5125 36.5572 23.4615L40.3256 22.1202C40.1484 21.6222 39.8382 21.1003 39.32 20.6986L36.8697 23.8603ZM36.5607 23.4711C36.5499 23.4414 36.5507 23.4335 36.5541 23.4556C36.5574 23.4778 36.5621 23.5231 36.5621 23.5962H40.5621C40.5621 23.1215 40.5027 22.6097 40.3222 22.1106L36.5607 23.4711ZM36.5621 23.5962C36.5621 23.6718 36.5573 23.7197 36.5537 23.7443C36.5501 23.7689 36.5487 23.7632 36.5586 23.7352L40.327 25.0765C40.504 24.5794 40.5621 24.0696 40.5621 23.5962H36.5621ZM36.5595 23.7327C36.5773 23.683 36.6553 23.5044 36.8677 23.3387L39.3276 26.4929C39.8412 26.0924 40.1493 25.5739 40.3261 25.0791L36.5595 23.7327ZM36.8739 23.3339C36.9842 23.2486 37.1094 23.1833 37.2394 23.1417C37.3667 23.101 37.4754 23.0906 37.5508 23.0906V27.0906C38.1498 27.0906 38.7772 26.9187 39.3214 26.4978L36.8739 23.3339ZM37.5508 26.7781C38.5712 26.7781 39.3538 26.2086 39.7796 25.467L36.3106 23.4755C36.3814 23.3521 36.5251 23.1595 36.7787 23.0021C37.0424 22.8384 37.3203 22.7781 37.5508 22.7781V26.7781ZM39.7796 25.467C40.1461 24.8285 40.2212 24.1338 40.2212 23.5962H36.2212C36.2212 23.6871 36.2138 23.7181 36.2165 23.7044C36.2191 23.6917 36.2382 23.6016 36.3106 23.4755L39.7796 25.467ZM40.2212 23.5962C40.2212 23.2128 40.1815 22.79 40.0534 22.3696L36.2272 23.5359C36.216 23.4992 36.2151 23.4836 36.2166 23.4961C36.2182 23.5084 36.2212 23.5405 36.2212 23.5962H40.2212ZM40.0562 22.379C39.9354 21.9755 39.7078 21.4861 39.2679 21.0794L36.5524 24.0165C36.3133 23.7953 36.2391 23.5759 36.2243 23.5265L40.0562 22.379ZM39.2748 21.0858C38.7927 20.6359 38.1805 20.4087 37.5508 20.4087V24.4087C37.3963 24.4087 37.214 24.3824 37.0233 24.3085C36.8317 24.2343 36.6711 24.1273 36.5455 24.0101L39.2748 21.0858ZM37.5508 20.4087C36.5123 20.4087 35.737 20.9994 35.3209 21.7284L38.7949 23.7112C38.7283 23.8278 38.5889 24.0191 38.3373 24.1778C38.0737 24.3442 37.7912 24.4087 37.5508 24.4087V20.4087ZM35.3229 21.725C34.9574 22.3624 34.8803 23.0549 34.8803 23.5962H38.8803C38.8803 23.5071 38.8877 23.477 38.8849 23.4909C38.8822 23.5041 38.8633 23.5919 38.7929 23.7147L35.3229 21.725ZM34.8803 23.5962C34.8803 23.9767 34.919 24.3971 35.0448 24.8149L38.875 23.6617C38.886 23.6982 38.8867 23.7133 38.885 23.6998C38.8834 23.6865 38.8803 23.6533 38.8803 23.5962H34.8803ZM35.0448 24.8149C35.1652 25.2149 35.3919 25.7033 35.8314 26.1093L38.5457 23.1712C38.7864 23.3935 38.8606 23.6139 38.875 23.6617L35.0448 24.8149ZM35.8384 26.1157C36.3222 26.5585 36.9303 26.7781 37.5508 26.7781V22.7781C37.7008 22.7781 37.8786 22.8032 38.0655 22.8743C38.2535 22.9458 38.4127 23.0495 38.5388 23.1648L35.8384 26.1157ZM39.07 24.9982L40.4842 23.584L39.07 24.9982ZM39.4308 24.6374L40.845 23.2232L40.845 23.2232L39.4308 24.6374ZM39.4705 24.9457L37.7629 23.9045L37.7536 23.9198L37.7445 23.9353L39.4705 24.9457ZM39.3782 25.0394L40.4072 26.7544L40.4133 26.7507L40.4194 26.747L39.3782 25.0394ZM39.2504 23.0735C39.4596 23.0735 39.6911 23.1122 39.923 23.209C40.1544 23.3055 40.3414 23.4412 40.4842 23.584L37.6557 26.4124C38.0756 26.8323 38.6422 27.0735 39.2504 27.0735V23.0735ZM40.4842 23.584C40.627 23.7268 40.7626 23.9138 40.8592 24.1452C40.956 24.3771 40.9947 24.6086 40.9947 24.8178H36.9947C36.9947 25.426 37.2359 25.9926 37.6557 26.4124L40.4842 23.584ZM40.9947 24.8178C40.9947 25.0271 40.956 25.2585 40.8592 25.4904C40.7626 25.7218 40.627 25.9089 40.4842 26.0516L37.6557 23.2232C37.2359 23.643 36.9947 24.2097 36.9947 24.8178H40.9947ZM40.4842 26.0516C40.3414 26.1944 40.1544 26.3301 39.923 26.4267C39.6911 26.5235 39.4596 26.5621 39.2504 26.5621V22.5621C38.6422 22.5621 38.0756 22.8034 37.6557 23.2232L40.4842 26.0516ZM39.2504 26.5621C39.0411 26.5621 38.8097 26.5235 38.5777 26.4267C38.3463 26.3301 38.1593 26.1944 38.0165 26.0516L40.845 23.2232C40.4251 22.8034 39.8585 22.5621 39.2504 22.5621V26.5621ZM38.0165 26.0516C37.8738 25.9089 37.7381 25.7218 37.6415 25.4904C37.5447 25.2585 37.506 25.0271 37.506 24.8178H41.506C41.506 24.2097 41.2648 23.643 40.845 23.2232L38.0165 26.0516ZM37.506 24.8178C37.506 24.5048 37.5913 24.1859 37.7629 23.9045L41.1781 25.9869C41.3971 25.6278 41.506 25.2237 41.506 24.8178H37.506ZM37.7445 23.9353C37.8907 23.6855 38.0966 23.4784 38.337 23.3318L40.4194 26.747C40.7375 26.5531 41.0049 26.2835 41.1966 25.956L37.7445 23.9353ZM38.3492 23.3244C38.6446 23.1472 38.9623 23.0735 39.2504 23.0735V27.0735C39.6331 27.0735 40.0361 26.9771 40.4072 26.7544L38.3492 23.3244ZM40.4023 24.9158L39.1724 26.493L39.1786 26.4978L40.4023 24.9158ZM40.0572 24.4059L38.173 25.0765L38.1739 25.0791L40.0572 24.4059ZM40.0572 22.7908L38.1755 22.1131L38.1739 22.1177L40.0572 22.7908ZM40.4038 22.2795L41.6337 23.8566L41.6351 23.8555L40.4038 22.2795ZM41.4933 22.2795L40.2571 23.8518L40.2681 23.8603L41.4933 22.2795ZM41.8398 22.7908L39.9556 23.4615L39.9591 23.4711L41.8398 22.7908ZM41.8413 24.4059L43.7246 25.0791L43.7255 25.0765L41.8413 24.4059ZM41.4961 24.9158L42.7198 26.4978L42.726 26.4929L41.4961 24.9158ZM41.4435 24.4712L39.709 23.4755V23.4755L41.4435 24.4712ZM41.5387 22.9528L39.6228 23.5265L39.6256 23.5359L41.5387 22.9528ZM41.3086 22.5479L39.9439 24.0101L39.9509 24.0165L41.3086 22.5479ZM40.4563 22.7198L42.1913 23.7147L42.1933 23.7112L40.4563 22.7198ZM40.3583 24.2383L38.4432 24.8149L38.4432 24.8149L40.3583 24.2383ZM40.587 24.6403L39.2298 26.1094L39.2368 26.1157L40.587 24.6403ZM40.9492 23.0906C41.0246 23.0906 41.1333 23.101 41.2606 23.1417C41.3906 23.1833 41.5158 23.2486 41.6261 23.3339L39.1786 26.4978C39.7228 26.9187 40.3502 27.0906 40.9492 27.0906V23.0906ZM41.6323 23.3387C41.8447 23.5044 41.9227 23.683 41.9405 23.7327L38.1739 25.0791C38.3507 25.5739 38.6588 26.0924 39.1724 26.4929L41.6323 23.3387ZM41.9414 23.7352C41.9513 23.7632 41.9499 23.7689 41.9463 23.7443C41.9427 23.7197 41.9379 23.6718 41.9379 23.5962H37.9379C37.9379 24.0696 37.996 24.5794 38.173 25.0765L41.9414 23.7352ZM41.9379 23.5962C41.9379 23.5221 41.9426 23.4756 41.9461 23.4522C41.9496 23.4288 41.9507 23.4355 41.9405 23.464L38.1739 22.1177C37.9963 22.6144 37.9379 23.1236 37.9379 23.5962H41.9379ZM41.9388 23.4686C41.9225 23.5139 41.846 23.691 41.6337 23.8566L39.1738 20.7024C38.6604 21.1028 38.3528 21.6208 38.1755 22.1131L41.9388 23.4686ZM41.6351 23.8555C41.5283 23.9389 41.4047 24.0052 41.2728 24.0481C41.1433 24.0903 41.0306 24.1019 40.9492 24.1019V20.1019C40.3397 20.1019 39.7123 20.2817 39.1725 20.7034L41.6351 23.8555ZM40.9492 24.1019C40.8679 24.1019 40.7545 24.0903 40.6238 24.0476C40.4907 24.0042 40.3654 23.9369 40.2572 23.8518L42.7293 20.7072C42.1882 20.2817 41.5586 20.1019 40.9492 20.1019V24.1019ZM40.2681 23.8603C40.0529 23.6935 39.9738 23.5125 39.9556 23.4615L43.724 22.1202C43.5468 21.6222 43.2367 21.1003 42.7184 20.6986L40.2681 23.8603ZM39.9591 23.4711C39.9483 23.4414 39.9492 23.4335 39.9525 23.4556C39.9558 23.4778 39.9606 23.5231 39.9606 23.5962H43.9606C43.9606 23.1215 43.9011 22.6097 43.7206 22.1106L39.9591 23.4711ZM39.9606 23.5962C39.9606 23.6718 39.9558 23.7197 39.9521 23.7443C39.9485 23.7689 39.9471 23.7632 39.9571 23.7352L43.7255 25.0765C43.9024 24.5794 43.9606 24.0696 43.9606 23.5962H39.9606ZM39.958 23.7327C39.9757 23.683 40.0537 23.5044 40.2662 23.3387L42.726 26.4929C43.2396 26.0924 43.5477 25.5739 43.7246 25.0791L39.958 23.7327ZM40.2723 23.3339C40.3827 23.2486 40.5078 23.1833 40.6378 23.1417C40.7652 23.101 40.8738 23.0906 40.9492 23.0906V27.0906C41.5482 27.0906 42.1757 26.9187 42.7198 26.4978L40.2723 23.3339ZM40.9492 26.7781C41.9696 26.7781 42.7523 26.2086 43.178 25.467L39.709 23.4755C39.7799 23.3521 39.9235 23.1595 40.1772 23.0021C40.4409 22.8384 40.7188 22.7781 40.9492 22.7781V26.7781ZM43.178 25.467C43.5446 24.8285 43.6197 24.1338 43.6197 23.5962H39.6197C39.6197 23.6871 39.6122 23.7181 39.615 23.7044C39.6175 23.6917 39.6366 23.6016 39.709 23.4755L43.178 25.467ZM43.6197 23.5962C43.6197 23.2128 43.5799 22.79 43.4518 22.3696L39.6256 23.5359C39.6144 23.4992 39.6135 23.4836 39.6151 23.4961C39.6166 23.5084 39.6197 23.5405 39.6197 23.5962H43.6197ZM43.4546 22.379C43.3338 21.9755 43.1063 21.4861 42.6663 21.0794L39.9509 24.0165C39.7117 23.7953 39.6376 23.5759 39.6228 23.5265L43.4546 22.379ZM42.6732 21.0858C42.1912 20.6359 41.5789 20.4087 40.9492 20.4087V24.4087C40.7948 24.4087 40.6124 24.3824 40.4218 24.3085C40.2301 24.2343 40.0696 24.1273 39.944 24.0101L42.6732 21.0858ZM40.9492 20.4087C39.9107 20.4087 39.1355 20.9994 38.7193 21.7284L42.1933 23.7112C42.1267 23.8278 41.9873 24.0191 41.7358 24.1778C41.4722 24.3442 41.1897 24.4087 40.9492 24.4087V20.4087ZM38.7213 21.725C38.3558 22.3624 38.2788 23.0549 38.2788 23.5962H42.2788C42.2788 23.5071 42.2861 23.477 42.2833 23.4909C42.2806 23.5041 42.2617 23.5919 42.1913 23.7147L38.7213 21.725ZM38.2788 23.5962C38.2788 23.9767 38.3174 24.3971 38.4432 24.8149L42.2734 23.6617C42.2844 23.6982 42.2852 23.7133 42.2835 23.6998C42.2818 23.6865 42.2788 23.6533 42.2788 23.5962H38.2788ZM38.4432 24.8149C38.5637 25.2149 38.7903 25.7033 39.2299 26.1093L41.9441 23.1712C42.1848 23.3935 42.259 23.6139 42.2734 23.6617L38.4432 24.8149ZM39.2368 26.1157C39.7207 26.5585 40.3287 26.7781 40.9492 26.7781V22.7781C41.0992 22.7781 41.2771 22.8032 41.4639 22.8743C41.652 22.9458 41.8112 23.0495 41.9372 23.1648L39.2368 26.1157ZM42.9023 24.9158L41.6724 26.493L41.6786 26.4978L42.9023 24.9158ZM42.5572 24.4059L40.673 25.0765L40.6739 25.0791L42.5572 24.4059ZM42.5572 22.7908L40.6755 22.1131L40.6739 22.1177L42.5572 22.7908ZM42.9038 22.2795L44.1337 23.8566L44.1351 23.8555L42.9038 22.2795ZM43.9933 22.2795L42.7571 23.8518L42.7681 23.8603L43.9933 22.2795ZM44.3398 22.7908L42.4556 23.4615L42.4591 23.4711L44.3398 22.7908ZM44.3413 24.4059L46.2246 25.0791L46.2255 25.0765L44.3413 24.4059ZM43.9961 24.9158L45.2198 26.4978L45.226 26.4929L43.9961 24.9158ZM43.9435 24.4712L42.209 23.4755V23.4755L43.9435 24.4712ZM44.0387 22.9528L42.1228 23.5265L42.1256 23.5359L44.0387 22.9528ZM43.8086 22.5479L42.4439 24.0101L42.4509 24.0165L43.8086 22.5479ZM42.9563 22.7198L44.6913 23.7147L44.6933 23.7112L42.9563 22.7198ZM42.8583 24.2383L40.9432 24.8149V24.8149L42.8583 24.2383ZM43.087 24.6403L41.7298 26.1094L41.7368 26.1157L43.087 24.6403ZM43.4492 23.0906C43.5246 23.0906 43.6333 23.101 43.7606 23.1417C43.8906 23.1833 44.0158 23.2486 44.1261 23.3339L41.6786 26.4978C42.2228 26.9187 42.8502 27.0906 43.4492 27.0906V23.0906ZM44.1323 23.3387C44.3447 23.5044 44.4227 23.683 44.4405 23.7327L40.6739 25.0791C40.8507 25.5739 41.1588 26.0924 41.6724 26.4929L44.1323 23.3387ZM44.4414 23.7352C44.4513 23.7632 44.4499 23.7689 44.4463 23.7443C44.4427 23.7197 44.4379 23.6718 44.4379 23.5962H40.4379C40.4379 24.0696 40.496 24.5794 40.673 25.0765L44.4414 23.7352ZM44.4379 23.5962C44.4379 23.5221 44.4426 23.4756 44.4461 23.4522C44.4496 23.4288 44.4507 23.4355 44.4405 23.464L40.6739 22.1177C40.4963 22.6144 40.4379 23.1236 40.4379 23.5962H44.4379ZM44.4388 23.4686C44.4225 23.5139 44.346 23.691 44.1337 23.8566L41.6738 20.7024C41.1604 21.1028 40.8528 21.6208 40.6755 22.1131L44.4388 23.4686ZM44.1351 23.8555C44.0283 23.9389 43.9047 24.0052 43.7728 24.0481C43.6433 24.0903 43.5306 24.1019 43.4492 24.1019V20.1019C42.8397 20.1019 42.2123 20.2817 41.6725 20.7034L44.1351 23.8555ZM43.4492 24.1019C43.3679 24.1019 43.2545 24.0903 43.1238 24.0476C42.9907 24.0042 42.8654 23.9369 42.7572 23.8518L45.2293 20.7072C44.6882 20.2817 44.0586 20.1019 43.4492 20.1019V24.1019ZM42.7681 23.8603C42.5529 23.6935 42.4738 23.5125 42.4556 23.4615L46.224 22.1202C46.0468 21.6222 45.7367 21.1003 45.2184 20.6986L42.7681 23.8603ZM42.4591 23.4711C42.4483 23.4414 42.4492 23.4335 42.4525 23.4556C42.4558 23.4778 42.4606 23.5231 42.4606 23.5962H46.4606C46.4606 23.1215 46.4011 22.6097 46.2206 22.1106L42.4591 23.4711ZM42.4606 23.5962C42.4606 23.6718 42.4558 23.7197 42.4521 23.7443C42.4485 23.7689 42.4471 23.7632 42.4571 23.7352L46.2255 25.0765C46.4024 24.5794 46.4606 24.0696 46.4606 23.5962H42.4606ZM42.458 23.7327C42.4757 23.683 42.5537 23.5044 42.7662 23.3387L45.226 26.4929C45.7396 26.0924 46.0477 25.5739 46.2246 25.0791L42.458 23.7327ZM42.7723 23.3339C42.8827 23.2486 43.0078 23.1833 43.1378 23.1417C43.2652 23.101 43.3738 23.0906 43.4492 23.0906V27.0906C44.0482 27.0906 44.6757 26.9187 45.2198 26.4978L42.7723 23.3339ZM43.4492 26.7781C44.4696 26.7781 45.2523 26.2086 45.678 25.467L42.209 23.4755C42.2799 23.3521 42.4235 23.1595 42.6772 23.0021C42.9409 22.8384 43.2188 22.7781 43.4492 22.7781V26.7781ZM45.678 25.467C46.0446 24.8285 46.1197 24.1338 46.1197 23.5962H42.1197C42.1197 23.6871 42.1122 23.7181 42.115 23.7044C42.1175 23.6917 42.1366 23.6016 42.209 23.4755L45.678 25.467ZM46.1197 23.5962C46.1197 23.2128 46.0799 22.79 45.9518 22.3696L42.1256 23.5359C42.1144 23.4992 42.1135 23.4836 42.1151 23.4961C42.1166 23.5084 42.1197 23.5405 42.1197 23.5962H46.1197ZM45.9546 22.379C45.8338 21.9755 45.6063 21.4861 45.1663 21.0794L42.4509 24.0165C42.2117 23.7953 42.1376 23.5759 42.1228 23.5265L45.9546 22.379ZM45.1732 21.0858C44.6912 20.6359 44.0789 20.4087 43.4492 20.4087V24.4087C43.2948 24.4087 43.1124 24.3824 42.9218 24.3085C42.7301 24.2343 42.5696 24.1273 42.444 24.0101L45.1732 21.0858ZM43.4492 20.4087C42.4107 20.4087 41.6355 20.9994 41.2193 21.7284L44.6933 23.7112C44.6267 23.8278 44.4873 24.0191 44.2358 24.1778C43.9722 24.3442 43.6897 24.4087 43.4492 24.4087V20.4087ZM41.2213 21.725C40.8558 22.3624 40.7788 23.0549 40.7788 23.5962H44.7788C44.7788 23.5071 44.7861 23.477 44.7833 23.4909C44.7806 23.5041 44.7617 23.5919 44.6913 23.7147L41.2213 21.725ZM40.7788 23.5962C40.7788 23.9767 40.8174 24.3971 40.9432 24.8149L44.7734 23.6617C44.7844 23.6982 44.7852 23.7133 44.7835 23.6998C44.7818 23.6865 44.7788 23.6533 44.7788 23.5962H40.7788ZM40.9432 24.8149C41.0637 25.2149 41.2903 25.7033 41.7299 26.1093L44.4441 23.1712C44.6848 23.3935 44.759 23.6139 44.7734 23.6617L40.9432 24.8149ZM41.7368 26.1157C42.2207 26.5585 42.8287 26.7781 43.4492 26.7781V22.7781C43.5992 22.7781 43.7771 22.8032 43.9639 22.8743C44.152 22.9458 44.3112 23.0495 44.4372 23.1648L41.7368 26.1157Z" fill="white" mask="url(#path-29-outside-3_2352_255)"/>
<defs>
<linearGradient id="paint0_linear_2352_255" x1="32.6195" y1="12.3428" x2="32.6195" y2="48.5999" gradientUnits="userSpaceOnUse">
<stop stop-color="#1FC9FF"/>
<stop offset="0.5" stop-color="#95E6FD"/>
<stop offset="0.93" stop-color="#FBFFFB"/>
</linearGradient>
<linearGradient id="paint1_linear_2352_255" x1="32.6195" y1="40.8857" x2="32.6195" y2="54" gradientUnits="userSpaceOnUse">
<stop stop-color="#95E6FD"/>
<stop offset="0.555" stop-color="#FBFFFB"/>
</linearGradient>
</defs>
</svg>