 <svg width="48" height="42" viewBox="0 0 48 42" fill="none" xmlns="http://www.w3.org/2000/svg">
<mask id="path-1-inside-1_2348_71" fill="white">
<path fill-rule="evenodd" clip-rule="evenodd" d="M10.0303 6.26852C13.6652 4.06823 17.9636 2.85089 22.382 2.77045L22.7355 22.186L45.0752 21.7793C45.1451 25.6193 43.9032 29.397 41.5067 32.6345C39.1101 35.8721 35.6664 38.4242 31.6111 39.968C27.5558 41.5118 23.071 41.9781 18.7239 41.3078C14.3768 40.6376 10.3626 38.8609 7.1889 36.2025C4.0152 33.544 1.82456 30.1233 0.894013 26.3727C-0.0365382 22.6221 0.334788 18.7103 1.96104 15.1318C3.58728 11.5532 6.39541 8.46882 10.0303 6.26852ZM45.5679 12.0165C46.7334 14.3517 47.3572 16.8659 47.4036 19.4156L25.0639 19.8223L24.7105 0.406722C27.6442 0.35331 30.5583 0.80262 33.2864 1.729C36.0145 2.65538 38.5033 4.04068 40.6105 5.80581C42.7178 7.57094 44.4023 9.68134 45.5679 12.0165Z"/>
</mask>
<path fill-rule="evenodd" clip-rule="evenodd" d="M10.0303 6.26852C13.6652 4.06823 17.9636 2.85089 22.382 2.77045L22.7355 22.186L45.0752 21.7793C45.1451 25.6193 43.9032 29.397 41.5067 32.6345C39.1101 35.8721 35.6664 38.4242 31.6111 39.968C27.5558 41.5118 23.071 41.9781 18.7239 41.3078C14.3768 40.6376 10.3626 38.8609 7.1889 36.2025C4.0152 33.544 1.82456 30.1233 0.894013 26.3727C-0.0365382 22.6221 0.334788 18.7103 1.96104 15.1318C3.58728 11.5532 6.39541 8.46882 10.0303 6.26852ZM45.5679 12.0165C46.7334 14.3517 47.3572 16.8659 47.4036 19.4156L25.0639 19.8223L24.7105 0.406722C27.6442 0.35331 30.5583 0.80262 33.2864 1.729C36.0145 2.65538 38.5033 4.04068 40.6105 5.80581C42.7178 7.57094 44.4023 9.68134 45.5679 12.0165Z" fill="url(#paint0_linear_2348_71)"/>
<path d="M22.382 2.77045L23.3818 2.75225L23.3636 1.75241L22.3638 1.77062L22.382 2.77045ZM10.0303 6.26852L9.51247 5.41305L9.51247 5.41305L10.0303 6.26852ZM22.7355 22.186L21.7357 22.2042L21.7539 23.204L22.7537 23.1858L22.7355 22.186ZM45.0752 21.7793L46.075 21.7611L46.0568 20.7612L45.057 20.7795L45.0752 21.7793ZM41.5067 32.6345L42.3104 33.2295L42.3104 33.2295L41.5067 32.6345ZM31.6111 39.968L31.2553 39.0334L31.2553 39.0334L31.6111 39.968ZM18.7239 41.3078L18.5715 42.2962L18.7239 41.3078ZM7.1889 36.2025L7.83103 35.4359L7.1889 36.2025ZM1.96104 15.1318L2.87144 15.5455L1.96104 15.1318ZM47.4036 19.4156L47.4218 20.4154L48.4217 20.3972L48.4035 19.3974L47.4036 19.4156ZM45.5679 12.0165L46.4626 11.5699L45.5679 12.0165ZM25.0639 19.8223L24.0641 19.8405L24.0823 20.8403L25.0822 20.8221L25.0639 19.8223ZM24.7105 0.406722L24.6923 -0.593113L23.6924 -0.574909L23.7106 0.424925L24.7105 0.406722ZM33.2864 1.729L33.6079 0.782098L33.6079 0.782099L33.2864 1.729ZM22.3638 1.77062C17.7764 1.85414 13.3045 3.11767 9.51247 5.41305L10.5482 7.124C14.026 5.01879 18.1508 3.84765 22.4002 3.77029L22.3638 1.77062ZM23.7353 22.1678L23.3818 2.75225L21.3822 2.78866L21.7357 22.2042L23.7353 22.1678ZM45.057 20.7795L22.7173 21.1862L22.7537 23.1858L45.0934 22.7791L45.057 20.7795ZM42.3104 33.2295C44.8313 29.824 46.1492 25.8328 46.075 21.7611L44.0754 21.7975C44.1411 25.4058 42.9752 28.9699 40.7029 32.0396L42.3104 33.2295ZM31.9669 40.9026C36.1865 39.2962 39.7912 36.6327 42.3104 33.2295L40.7029 32.0396C38.4289 35.1115 35.1463 37.5521 31.2553 39.0334L31.9669 40.9026ZM18.5715 42.2962C23.0874 42.9924 27.7474 42.5089 31.9669 40.9026L31.2553 39.0334C27.3642 40.5148 23.0547 40.9638 18.8763 40.3195L18.5715 42.2962ZM6.54676 36.9691C9.86924 39.7521 14.0557 41.5999 18.5715 42.2962L18.8763 40.3195C14.6979 39.6753 10.8559 37.9697 7.83103 35.4359L6.54676 36.9691ZM-0.0765595 26.6135C0.908738 30.5847 3.22293 34.1849 6.54676 36.9691L7.83103 35.4359C4.80746 32.9032 2.74039 29.6618 1.86459 26.1319L-0.0765595 26.6135ZM1.05064 14.718C-0.667109 18.4979 -1.06238 22.6402 -0.0765595 26.6135L1.86459 26.1319C0.989307 22.6041 1.33669 18.9227 2.87144 15.5455L1.05064 14.718ZM9.51247 5.41305C5.71985 7.70881 2.76706 10.9411 1.05064 14.718L2.87144 15.5455C4.40751 12.1654 7.07097 9.22882 10.5482 7.124L9.51247 5.41305ZM48.4035 19.3974C48.3543 16.6953 47.693 14.035 46.4626 11.5699L44.6731 12.4631C45.7738 14.6683 46.3602 17.0365 46.4038 19.4338L48.4035 19.3974ZM25.0822 20.8221L47.4218 20.4154L47.3854 18.4157L25.0457 18.8224L25.0822 20.8221ZM23.7106 0.424925L24.0641 19.8405L26.0638 19.8041L25.7103 0.388518L23.7106 0.424925ZM33.6079 0.782099C30.7684 -0.182097 27.7392 -0.648587 24.6923 -0.593113L24.7287 1.40656C27.5491 1.35521 30.3481 1.78734 32.9649 2.67589L33.6079 0.782099ZM41.2527 5.03922C39.0461 3.19089 36.4475 1.7463 33.6079 0.782098L32.9649 2.67589C35.5816 3.56445 37.9605 4.89046 39.9684 6.5724L41.2527 5.03922ZM46.4626 11.5699C45.2325 9.10537 43.4595 6.88775 41.2527 5.03922L39.9684 6.5724C41.9761 8.25413 43.5721 10.2573 44.6731 12.4631L46.4626 11.5699Z" fill="#EF5DA8" mask="url(#path-1-inside-1_2348_71)"/>
<defs>
<linearGradient id="paint0_linear_2348_71" x1="2.72428" y1="20.229" x2="47.4037" y2="19.4156" gradientUnits="userSpaceOnUse">
<stop offset="0.065" stop-color="#F41515"/>
<stop offset="0.595" stop-color="#FA8A8A"/>
<stop offset="1" stop-color="white"/>
</linearGradient>
</defs>
</svg>