<svg width="48" height="42" viewBox="0 0 48 42" fill="none" xmlns="http://www.w3.org/2000/svg">
<mask id="path-1-inside-1_2352_139" fill="white">
<path fill-rule="evenodd" clip-rule="evenodd" d="M10.0303 6.26852C13.6652 4.06823 17.9636 2.85089 22.382 2.77045L22.7355 22.186L45.0752 21.7793C45.1451 25.6193 43.9032 29.397 41.5067 32.6345C39.1101 35.8721 35.6664 38.4242 31.6111 39.968C27.5558 41.5118 23.071 41.9781 18.7239 41.3078C14.3768 40.6376 10.3626 38.8609 7.1889 36.2025C4.0152 33.544 1.82456 30.1233 0.894013 26.3727C-0.0365382 22.6221 0.334788 18.7103 1.96104 15.1318C3.58728 11.5532 6.39541 8.46882 10.0303 6.26852ZM45.5679 12.0165C46.7334 14.3517 47.3572 16.8659 47.4036 19.4156L25.0639 19.8223L24.7105 0.406722C27.6442 0.35331 30.5583 0.80262 33.2864 1.729C36.0145 2.65538 38.5033 4.04068 40.6105 5.80581C42.7178 7.57094 44.4023 9.68134 45.5679 12.0165Z"/>
</mask>
<path fill-rule="evenodd" clip-rule="evenodd" d="M10.0303 6.26852C13.6652 4.06823 17.9636 2.85089 22.382 2.77045L22.7355 22.186L45.0752 21.7793C45.1451 25.6193 43.9032 29.397 41.5067 32.6345C39.1101 35.8721 35.6664 38.4242 31.6111 39.968C27.5558 41.5118 23.071 41.9781 18.7239 41.3078C14.3768 40.6376 10.3626 38.8609 7.1889 36.2025C4.0152 33.544 1.82456 30.1233 0.894013 26.3727C-0.0365382 22.6221 0.334788 18.7103 1.96104 15.1318C3.58728 11.5532 6.39541 8.46882 10.0303 6.26852ZM45.5679 12.0165C46.7334 14.3517 47.3572 16.8659 47.4036 19.4156L25.0639 19.8223L24.7105 0.406722C27.6442 0.35331 30.5583 0.80262 33.2864 1.729C36.0145 2.65538 38.5033 4.04068 40.6105 5.80581C42.7178 7.57094 44.4023 9.68134 45.5679 12.0165Z" fill="url(#paint0_linear_2352_139)"/>
<path d="M22.382 2.77045L24.3817 2.73405L24.3453 0.734377L22.3456 0.770783L22.382 2.77045ZM10.0303 6.26852L8.99463 4.55757L8.99463 4.55757L10.0303 6.26852ZM22.7355 22.186L20.7358 22.2224L20.7722 24.2221L22.7719 24.1857L22.7355 22.186ZM45.0752 21.7793L47.0749 21.7429L47.0385 19.7432L45.0388 19.7796L45.0752 21.7793ZM41.5067 32.6345L43.1142 33.8245L43.1142 33.8245L41.5067 32.6345ZM31.6111 39.968L30.8995 38.0989L30.8995 38.0989L31.6111 39.968ZM18.7239 41.3078L18.4192 43.2845L18.7239 41.3078ZM7.1889 36.2025L8.47316 34.6693L7.1889 36.2025ZM1.96104 15.1318L3.78184 15.9592L1.96104 15.1318ZM47.4036 19.4156L47.44 21.4152L49.4397 21.3788L49.4033 19.3792L47.4036 19.4156ZM45.5679 12.0165L47.3573 11.1233L45.5679 12.0165ZM25.0639 19.8223L23.0643 19.8587L23.1007 21.8584L25.1004 21.8219L25.0639 19.8223ZM24.7105 0.406722L24.6741 -1.59295L22.6744 -1.55654L22.7108 0.443128L24.7105 0.406722ZM33.2864 1.729L33.9295 -0.164803L33.9295 -0.164803L33.2864 1.729ZM22.3456 0.770783C17.5892 0.857379 12.9437 2.16711 8.99463 4.55757L11.066 7.97948C14.3867 5.96936 18.338 4.84441 22.4184 4.77012L22.3456 0.770783ZM24.7352 22.1496L24.3817 2.73405L20.3823 2.80686L20.7358 22.2224L24.7352 22.1496ZM45.0388 19.7796L22.6991 20.1863L22.7719 24.1857L45.1116 23.779L45.0388 19.7796ZM43.1142 33.8245C45.7593 30.2511 47.1532 26.0463 47.0749 21.7429L43.0755 21.8157C43.137 25.1924 42.0472 28.5429 39.8992 31.4446L43.1142 33.8245ZM32.3227 41.8371C36.7066 40.1682 40.4723 37.3933 43.1142 33.8245L39.8992 31.4446C37.7478 34.3509 34.6262 36.6801 30.8995 38.0989L32.3227 41.8371ZM18.4192 43.2845C23.1037 44.0068 27.939 43.506 32.3227 41.8371L30.8995 38.0989C27.1726 39.5177 23.0383 39.9494 19.0287 39.3312L18.4192 43.2845ZM5.90463 37.7357C9.37589 40.6433 13.7347 42.5622 18.4192 43.2845L19.0287 39.3312C15.019 38.713 11.3493 37.0785 8.47316 34.6693L5.90463 37.7357ZM-1.04713 26.8543C-0.0070892 31.0462 2.43067 34.8257 5.90463 37.7357L8.47316 34.6693C5.59973 32.2624 3.65622 29.2003 2.83516 25.8911L-1.04713 26.8543ZM0.140237 14.3043C-1.66901 18.2855 -2.08823 22.6582 -1.04713 26.8543L2.83516 25.8911C2.01515 22.5861 2.33858 19.1351 3.78184 15.9592L0.140237 14.3043ZM8.99463 4.55757C5.04429 6.94881 1.94683 10.3289 0.140237 14.3043L3.78184 15.9592C5.22773 12.7776 7.74654 9.98883 11.066 7.97948L8.99463 4.55757ZM49.4033 19.3792C49.3513 16.5247 48.6526 13.7184 47.3573 11.1233L43.7784 12.9097C44.8142 14.9849 45.3631 17.2071 45.404 19.452L49.4033 19.3792ZM25.1004 21.8219L47.44 21.4152L47.3672 17.4159L25.0275 17.8226L25.1004 21.8219ZM22.7108 0.443128L23.0643 19.8587L27.0636 19.7859L26.7101 0.370315L22.7108 0.443128ZM33.9295 -0.164803C30.9786 -1.16681 27.8343 -1.65048 24.6741 -1.59295L24.7469 2.40639C27.454 2.3571 30.1379 2.77205 32.6433 3.62279L33.9295 -0.164803ZM41.8948 4.27262C39.5889 2.34111 36.8804 0.837224 33.9295 -0.164803L32.6433 3.62279C35.1487 4.47353 37.4177 5.74025 39.3263 7.339L41.8948 4.27262ZM47.3573 11.1233C46.0626 8.5294 44.2012 6.20457 41.8948 4.27262L39.3263 7.339C41.2344 8.93732 42.742 10.8333 43.7784 12.9097L47.3573 11.1233Z" fill="white" mask="url(#path-1-inside-1_2352_139)"/>
<defs>
<linearGradient id="paint0_linear_2352_139" x1="2.72428" y1="20.229" x2="47.4037" y2="19.4156" gradientUnits="userSpaceOnUse">
<stop offset="0.065" stop-color="#F41515"/>
<stop offset="0.595" stop-color="#FA8A8A"/>
<stop offset="1" stop-color="white"/>
</linearGradient>
</defs>
</svg>