  <svg width="60" height="54" viewBox="0 0 60 54" fill="none" xmlns="http://www.w3.org/2000/svg">
<rect x="38.9043" y="7.44287" width="3.62765" height="5.94286" fill="#D9D9D9" stroke="#14BBC7"/>
<path d="M13.8169 20.5564C14.6739 16.0798 18.5895 12.8428 23.1474 12.8428H42.3906C46.9853 12.8428 50.9215 16.1311 51.739 20.6524L54.6786 36.9096C55.7325 42.7384 51.2535 48.0999 45.3302 48.0999H20.035C14.0719 48.0999 9.58316 42.6703 10.7044 36.8136L13.8169 20.5564Z" fill="url(#paint0_linear_2347_33)" stroke="#14BBC7"/>
<rect x="5.73938" y="41.3857" width="53.7606" height="12.1143" rx="3.5" fill="url(#paint1_linear_2347_33)" stroke="#14BBC7"/>
<rect x="34.2765" y="19.7856" width="13.6542" height="7.48571" fill="#E3F4F4" stroke="#14BBC7"/>
<rect x="33.5054" y="0.5" width="13.6542" height="7.48571" fill="#E3F4F4" stroke="#14BBC7"/>
<line x1="17.5798" y1="21.8716" x2="27.6064" y2="21.8716" stroke="#14BBC7"/>
<rect x="19.508" y="28.1572" width="1.5424" height="0.771429" fill="#D9D9D9" stroke="#14BBC7" stroke-width="0.771429"/>
<rect x="19.508" y="31.2431" width="1.5424" height="0.771429" fill="#D9D9D9" stroke="#14BBC7" stroke-width="0.771429"/>
<rect x="24.1356" y="31.2431" width="1.5424" height="0.771429" fill="#D9D9D9" stroke="#14BBC7" stroke-width="0.771429"/>
<rect x="24.1356" y="35.1001" width="1.5424" height="0.771429" fill="#D9D9D9" stroke="#14BBC7" stroke-width="0.771429"/>
<rect x="19.508" y="35.1001" width="1.5424" height="0.771429" fill="#D9D9D9" stroke="#14BBC7" stroke-width="0.771429"/>
<rect x="24.1356" y="28.1572" width="1.5424" height="0.771429" fill="#D9D9D9" stroke="#14BBC7" stroke-width="0.771429"/>
<rect x="36.4762" y="32.0141" width="1.5424" height="0.771429" fill="#D9D9D9" stroke="#14BBC7" stroke-width="0.771429"/>
<rect x="41.1039" y="32.0141" width="1.5424" height="0.771429" fill="#D9D9D9" stroke="#14BBC7" stroke-width="0.771429"/>
<rect x="45.7314" y="32.0141" width="1.5424" height="0.771429" fill="#D9D9D9" stroke="#14BBC7" stroke-width="0.771429"/>
<rect x="45.7314" y="35.1001" width="1.5424" height="0.771429" fill="#D9D9D9" stroke="#14BBC7" stroke-width="0.771429"/>
<rect x="41.1039" y="35.1001" width="1.5424" height="0.771429" fill="#D9D9D9" stroke="#14BBC7" stroke-width="0.771429"/>
<rect x="36.4762" y="35.1001" width="1.5424" height="0.771429" fill="#D9D9D9" stroke="#14BBC7" stroke-width="0.771429"/>
<rect x="36.4762" y="38.1855" width="1.5424" height="0.771429" fill="#D9D9D9" stroke="#14BBC7" stroke-width="0.771429"/>
<rect x="41.1039" y="38.1855" width="1.5424" height="0.771429" fill="#D9D9D9" stroke="#14BBC7" stroke-width="0.771429"/>
<rect x="45.7314" y="38.1855" width="1.5424" height="0.771429" fill="#D9D9D9" stroke="#14BBC7" stroke-width="0.771429"/>
<line x1="10.6383" y1="47.3286" x2="27.6064" y2="47.3286" stroke="#14BBC7"/>
<line x1="37.6329" y1="47.3286" x2="54.601" y2="47.3286" stroke="#14BBC7"/>
<path d="M34.8192 47.4427C34.8192 48.1503 34.0962 48.8713 33.0054 48.8713C31.9145 48.8713 31.1915 48.1503 31.1915 47.4427C31.1915 46.7352 31.9145 46.0142 33.0054 46.0142C34.0962 46.0142 34.8192 46.7352 34.8192 47.4427Z" fill="#D9D9D9" stroke="#14BBC7"/>
<mask id="path-25-inside-1_2347_33" fill="white">
<path fill-rule="evenodd" clip-rule="evenodd" d="M9.77363 28.457C9.77363 26.8002 11.1168 25.457 12.7736 25.457H15.2577C16.9145 25.457 18.2577 26.8002 18.2577 28.457V29.2675C19.407 29.6758 20.4716 30.2451 21.42 30.9461L21.4777 30.9098C22.8807 30.0286 24.7323 30.4518 25.6133 31.855L26.9347 33.9598C27.8157 35.3631 27.3924 37.215 25.9893 38.0962L25.8567 38.1795C25.9317 38.6858 25.9704 39.203 25.9704 39.7286C25.9704 40.1553 25.9449 40.5764 25.8951 40.9907C27.2945 41.843 27.753 43.6647 26.9168 45.0796L25.6523 47.2191C24.8303 48.6098 23.0611 49.0939 21.6513 48.3358C20.6528 49.1122 19.517 49.7393 18.283 50.1806L18.2833 50.2284C18.2923 51.8853 16.9565 53.2357 15.2997 53.2448L12.8157 53.2584C11.1589 53.2674 9.8084 51.9316 9.79935 50.2748L9.79894 50.1986C8.85391 49.8653 7.9659 49.4231 7.15236 48.8884L6.96128 49.0165C5.58485 49.9387 3.72158 49.5705 2.79955 48.1939L1.41655 46.129C0.494521 44.7524 0.862885 42.8888 2.23931 41.9665L2.2925 41.9309C2.14056 41.2189 2.06086 40.4824 2.06086 39.7286C2.06086 39.3084 2.08563 38.8935 2.13388 38.4853L1.53963 38.1243C0.12363 37.264 -0.327059 35.4185 0.532989 34.0024L1.82305 31.8782C2.6831 30.462 4.5282 30.0114 5.9442 30.8717L6.36911 31.1299C7.3771 30.3443 8.52538 29.7109 9.77363 29.2675V28.457Z"/>
</mask>
<path fill-rule="evenodd" clip-rule="evenodd" d="M9.77363 28.457C9.77363 26.8002 11.1168 25.457 12.7736 25.457H15.2577C16.9145 25.457 18.2577 26.8002 18.2577 28.457V29.2675C19.407 29.6758 20.4716 30.2451 21.42 30.9461L21.4777 30.9098C22.8807 30.0286 24.7323 30.4518 25.6133 31.855L26.9347 33.9598C27.8157 35.3631 27.3924 37.215 25.9893 38.0962L25.8567 38.1795C25.9317 38.6858 25.9704 39.203 25.9704 39.7286C25.9704 40.1553 25.9449 40.5764 25.8951 40.9907C27.2945 41.843 27.753 43.6647 26.9168 45.0796L25.6523 47.2191C24.8303 48.6098 23.0611 49.0939 21.6513 48.3358C20.6528 49.1122 19.517 49.7393 18.283 50.1806L18.2833 50.2284C18.2923 51.8853 16.9565 53.2357 15.2997 53.2448L12.8157 53.2584C11.1589 53.2674 9.8084 51.9316 9.79935 50.2748L9.79894 50.1986C8.85391 49.8653 7.9659 49.4231 7.15236 48.8884L6.96128 49.0165C5.58485 49.9387 3.72158 49.5705 2.79955 48.1939L1.41655 46.129C0.494521 44.7524 0.862885 42.8888 2.23931 41.9665L2.2925 41.9309C2.14056 41.2189 2.06086 40.4824 2.06086 39.7286C2.06086 39.3084 2.08563 38.8935 2.13388 38.4853L1.53963 38.1243C0.12363 37.264 -0.327059 35.4185 0.532989 34.0024L1.82305 31.8782C2.6831 30.462 4.5282 30.0114 5.9442 30.8717L6.36911 31.1299C7.3771 30.3443 8.52538 29.7109 9.77363 29.2675V28.457Z" fill="#E3F4F4"/>
<path d="M18.2577 29.2675H17.2577V29.9735L17.9229 30.2099L18.2577 29.2675ZM21.42 30.9461L20.8256 31.7502L21.3742 32.1557L21.9518 31.7929L21.42 30.9461ZM21.4777 30.9098L20.9458 30.063V30.063L21.4777 30.9098ZM25.6133 31.855L26.4602 31.3233V31.3233L25.6133 31.855ZM26.9347 33.9598L26.0878 34.4915L26.9347 33.9598ZM25.9893 38.0962L26.5212 38.943L26.5212 38.943L25.9893 38.0962ZM25.8567 38.1795L25.3248 37.3327L24.7718 37.68L24.8675 38.326L25.8567 38.1795ZM25.8951 40.9907L24.9023 40.8715L24.8256 41.5102L25.375 41.8448L25.8951 40.9907ZM26.9168 45.0796L26.0559 44.5708L26.9168 45.0796ZM25.6523 47.2191L26.5131 47.7279V47.7279L25.6523 47.2191ZM21.6513 48.3358L22.1249 47.455L21.5515 47.1467L21.0375 47.5463L21.6513 48.3358ZM18.283 50.1806L17.9462 49.239L17.2791 49.4776L17.283 50.1861L18.283 50.1806ZM18.2833 50.2284L19.2832 50.223V50.223L18.2833 50.2284ZM15.2997 53.2448L15.2942 52.2448H15.2942L15.2997 53.2448ZM12.8157 53.2584L12.8212 54.2583H12.8212L12.8157 53.2584ZM9.79935 50.2748L8.79937 50.2803V50.2803L9.79935 50.2748ZM9.79894 50.1986L10.7989 50.1932L10.7951 49.4896L10.1316 49.2556L9.79894 50.1986ZM7.15236 48.8884L7.70157 48.0527L7.147 47.6883L6.59571 48.0577L7.15236 48.8884ZM6.96128 49.0165L7.51793 49.8472L7.51793 49.8472L6.96128 49.0165ZM2.79955 48.1939L3.6304 47.6374L3.6304 47.6374L2.79955 48.1939ZM1.41655 46.129L0.585701 46.6855H0.585701L1.41655 46.129ZM2.23931 41.9665L2.79596 42.7973H2.79596L2.23931 41.9665ZM2.2925 41.9309L2.84915 42.7616L3.41184 42.3846L3.27048 41.7222L2.2925 41.9309ZM2.13388 38.4853L3.12697 38.6027L3.2024 37.9644L2.65311 37.6307L2.13388 38.4853ZM1.53963 38.1243L1.02039 38.9789H1.02039L1.53963 38.1243ZM0.532989 34.0024L-0.321733 33.4833H-0.321733L0.532989 34.0024ZM1.82305 31.8782L2.67777 32.3973L1.82305 31.8782ZM5.9442 30.8717L6.46344 30.0171H6.46344L5.9442 30.8717ZM6.36911 31.1299L5.84988 31.9845L6.43959 32.3428L6.98384 31.9186L6.36911 31.1299ZM9.77363 29.2675L10.1083 30.2098L10.7736 29.9735V29.2675H9.77363ZM12.7736 24.457C10.5645 24.457 8.77363 26.2479 8.77363 28.457H10.7736C10.7736 27.3525 11.6691 26.457 12.7736 26.457V24.457ZM15.2577 24.457H12.7736V26.457H15.2577V24.457ZM19.2577 28.457C19.2577 26.2479 17.4668 24.457 15.2577 24.457V26.457C16.3622 26.457 17.2577 27.3525 17.2577 28.457H19.2577ZM19.2577 29.2675V28.457H17.2577V29.2675H19.2577ZM17.9229 30.2099C18.9796 30.5852 19.9567 31.108 20.8256 31.7502L22.0143 30.1419C20.9866 29.3822 19.8344 28.7664 18.5924 28.3252L17.9229 30.2099ZM21.9518 31.7929L22.0095 31.7567L20.9458 30.063L20.8881 30.0992L21.9518 31.7929ZM22.0095 31.7567C22.9449 31.1692 24.1791 31.4513 24.7664 32.3867L26.4602 31.3233C25.2856 29.4523 22.8166 28.888 20.9458 30.063L22.0095 31.7567ZM24.7664 32.3867L26.0878 34.4915L27.7816 33.4281L26.4602 31.3233L24.7664 32.3867ZM26.0878 34.4915C26.6751 35.4271 26.3929 36.6618 25.4575 37.2494L26.5212 38.943C28.3919 37.7681 28.9562 35.299 27.7816 33.4281L26.0878 34.4915ZM25.4575 37.2494L25.3248 37.3327L26.3886 39.0263L26.5212 38.943L25.4575 37.2494ZM24.8675 38.326C24.9353 38.784 24.9704 39.2522 24.9704 39.7286H26.9704C26.9704 39.1538 26.928 38.5877 26.8459 38.033L24.8675 38.326ZM24.9704 39.7286C24.9704 40.1154 24.9473 40.4967 24.9023 40.8715L26.888 41.1099C26.9425 40.6562 26.9704 40.1953 26.9704 39.7286H24.9704ZM27.7777 45.5884C28.8926 43.7019 28.2814 41.2732 26.4153 40.1366L25.375 41.8448C26.3077 42.4129 26.6133 43.6276 26.0559 44.5708L27.7777 45.5884ZM26.5131 47.7279L27.7777 45.5884L26.0559 44.5708L24.7914 46.7103L26.5131 47.7279ZM21.1777 49.2165C23.0582 50.2278 25.4171 49.5824 26.5131 47.7279L24.7914 46.7103C24.2436 47.6372 23.0641 47.9601 22.1249 47.455L21.1777 49.2165ZM21.0375 47.5463C20.1229 48.2574 19.0807 48.8333 17.9462 49.239L18.6198 51.1222C19.9533 50.6453 21.1826 49.9669 22.2651 49.1252L21.0375 47.5463ZM17.283 50.1861L17.2833 50.2339L19.2832 50.223L19.283 50.1752L17.283 50.1861ZM17.2833 50.2339C17.2893 51.3384 16.3988 52.2388 15.2942 52.2448L15.3052 54.2448C17.5143 54.2327 19.2953 52.4321 19.2832 50.223L17.2833 50.2339ZM15.2942 52.2448L12.8102 52.2584L12.8212 54.2583L15.3052 54.2448L15.2942 52.2448ZM12.8102 52.2584C11.7057 52.2644 10.8054 51.3739 10.7993 50.2693L8.79937 50.2803C8.81144 52.4894 10.6121 54.2704 12.8212 54.2583L12.8102 52.2584ZM10.7993 50.2693L10.7989 50.1932L8.79895 50.2041L8.79937 50.2803L10.7993 50.2693ZM10.1316 49.2556C9.26282 48.9491 8.44753 48.543 7.70157 48.0527L6.60316 49.7241C7.48428 50.3032 8.445 50.7814 9.46626 51.1417L10.1316 49.2556ZM7.51793 49.8472L7.70901 49.7192L6.59571 48.0577L6.40463 48.1857L7.51793 49.8472ZM1.9687 48.7503C3.19811 50.5859 5.68263 51.077 7.51793 49.8472L6.40464 48.1857C5.48708 48.8005 4.24505 48.555 3.6304 47.6374L1.9687 48.7503ZM0.585701 46.6855L1.9687 48.7503L3.6304 47.6374L2.2474 45.5725L0.585701 46.6855ZM1.68267 41.1358C-0.152512 42.3655 -0.643634 44.8501 0.585701 46.6855L2.2474 45.5725C1.63268 44.6547 1.87828 43.4122 2.79596 42.7973L1.68267 41.1358ZM1.73585 41.1001L1.68267 41.1358L2.79596 42.7973L2.84915 42.7616L1.73585 41.1001ZM3.27048 41.7222C3.13306 41.0782 3.06086 40.4117 3.06086 39.7286H1.06086C1.06086 40.5532 1.14806 41.3595 1.31452 42.1396L3.27048 41.7222ZM3.06086 39.7286C3.06086 39.3477 3.08331 38.972 3.12697 38.6027L1.14079 38.3679C1.08795 38.815 1.06086 39.269 1.06086 39.7286H3.06086ZM1.02039 38.9789L1.61464 39.3399L2.65311 37.6307L2.05886 37.2696L1.02039 38.9789ZM-0.321733 33.4833C-1.46843 35.3714 -0.867547 37.8319 1.02039 38.9789L2.05886 37.2696C1.11481 36.6961 0.814311 35.4656 1.38771 34.5215L-0.321733 33.4833ZM0.968329 31.3591L-0.321733 33.4833L1.38771 34.5215L2.67777 32.3973L0.968329 31.3591ZM6.46344 30.0171C4.57538 28.87 2.1151 29.4708 0.968329 31.3591L2.67777 32.3973C3.2511 31.4532 4.48102 31.1529 5.42496 31.7263L6.46344 30.0171ZM6.88835 30.2752L6.46344 30.0171L5.42496 31.7263L5.84988 31.9845L6.88835 30.2752ZM6.98384 31.9186C7.90707 31.1991 8.96076 30.6175 10.1083 30.2098L9.43891 28.3252C8.09 28.8043 6.84713 29.4895 5.75439 30.3411L6.98384 31.9186ZM8.77363 28.457V29.2675H10.7736V28.457H8.77363Z" fill="#14BBC7" mask="url(#path-25-inside-1_2347_33)"/>
<path d="M19.3002 39.7286C19.3002 42.618 16.7924 45.0143 13.63 45.0143C10.4677 45.0143 7.95984 42.618 7.95984 39.7286C7.95984 36.8392 10.4677 34.4429 13.63 34.4429C16.7924 34.4429 19.3002 36.8392 19.3002 39.7286Z" fill="#FFF3F3" stroke="#14BBC7"/>
<path d="M37.5507 25.0906C37.3366 25.0906 37.1544 25.0323 37.0038 24.9158C36.8532 24.7984 36.7382 24.6284 36.6586 24.4059C36.5791 24.1824 36.5393 23.9125 36.5393 23.5962C36.5393 23.2818 36.5791 23.0134 36.6586 22.7908C36.7391 22.5674 36.8546 22.3969 37.0052 22.2795C37.1567 22.1611 37.3385 22.1019 37.5507 22.1019C37.7628 22.1019 37.9441 22.1611 38.0947 22.2795C38.2462 22.3969 38.3617 22.5674 38.4413 22.7908C38.5218 23.0134 38.562 23.2818 38.562 23.5962C38.562 23.9125 38.5223 24.1824 38.4427 24.4059C38.3632 24.6284 38.2481 24.7984 38.0975 24.9158C37.947 25.0323 37.7647 25.0906 37.5507 25.0906ZM37.5507 24.7781C37.7628 24.7781 37.9276 24.6758 38.045 24.4712C38.1624 24.2667 38.2211 23.975 38.2211 23.5962C38.2211 23.3443 38.1941 23.1299 38.1401 22.9528C38.0871 22.7757 38.0104 22.6407 37.91 22.5479C37.8106 22.4551 37.6908 22.4087 37.5507 22.4087C37.3404 22.4087 37.1761 22.5124 37.0578 22.7198C36.9394 22.9263 36.8802 23.2184 36.8802 23.5962C36.8802 23.8481 36.9067 24.0621 36.9598 24.2383C37.0128 24.4144 37.089 24.5484 37.1884 24.6403C37.2888 24.7321 37.4096 24.7781 37.5507 24.7781ZM39.2502 25.0735C39.1802 25.0735 39.12 25.0484 39.0698 24.9982C39.0196 24.948 38.9946 24.8879 38.9946 24.8178C38.9946 24.7478 39.0196 24.6876 39.0698 24.6374C39.12 24.5872 39.1802 24.5621 39.2502 24.5621C39.3203 24.5621 39.3804 24.5872 39.4306 24.6374C39.4808 24.6876 39.5059 24.7478 39.5059 24.8178C39.5059 24.8642 39.4941 24.9068 39.4704 24.9457C39.4477 24.9845 39.4169 25.0157 39.3781 25.0394C39.3402 25.0621 39.2976 25.0735 39.2502 25.0735ZM40.9491 25.0906C40.7351 25.0906 40.5528 25.0323 40.4022 24.9158C40.2517 24.7984 40.1366 24.6284 40.0571 24.4059C39.9775 24.1824 39.9377 23.9125 39.9377 23.5962C39.9377 23.2818 39.9775 23.0134 40.0571 22.7908C40.1375 22.5674 40.2531 22.3969 40.4036 22.2795C40.5552 22.1611 40.737 22.1019 40.9491 22.1019C41.1612 22.1019 41.3426 22.1611 41.4931 22.2795C41.6446 22.3969 41.7602 22.5674 41.8397 22.7908C41.9202 23.0134 41.9605 23.2818 41.9605 23.5962C41.9605 23.9125 41.9207 24.1824 41.8411 24.4059C41.7616 24.6284 41.6465 24.7984 41.496 24.9158C41.3454 25.0323 41.1631 25.0906 40.9491 25.0906ZM40.9491 24.7781C41.1612 24.7781 41.326 24.6758 41.4434 24.4712C41.5608 24.2667 41.6196 23.975 41.6196 23.5962C41.6196 23.3443 41.5926 23.1299 41.5386 22.9528C41.4856 22.7757 41.4089 22.6407 41.3085 22.5479C41.209 22.4551 41.0892 22.4087 40.9491 22.4087C40.7389 22.4087 40.5746 22.5124 40.4562 22.7198C40.3378 22.9263 40.2786 23.2184 40.2786 23.5962C40.2786 23.8481 40.3052 24.0621 40.3582 24.2383C40.4112 24.4144 40.4874 24.5484 40.5869 24.6403C40.6873 24.7321 40.808 24.7781 40.9491 24.7781ZM43.4491 25.0906C43.2351 25.0906 43.0528 25.0323 42.9022 24.9158C42.7517 24.7984 42.6366 24.6284 42.5571 24.4059C42.4775 24.1824 42.4377 23.9125 42.4377 23.5962C42.4377 23.2818 42.4775 23.0134 42.5571 22.7908C42.6375 22.5674 42.7531 22.3969 42.9036 22.2795C43.0552 22.1611 43.237 22.1019 43.4491 22.1019C43.6612 22.1019 43.8426 22.1611 43.9931 22.2795C44.1446 22.3969 44.2602 22.5674 44.3397 22.7908C44.4202 23.0134 44.4605 23.2818 44.4605 23.5962C44.4605 23.9125 44.4207 24.1824 44.3411 24.4059C44.2616 24.6284 44.1465 24.7984 43.996 24.9158C43.8454 25.0323 43.6631 25.0906 43.4491 25.0906ZM43.4491 24.7781C43.6612 24.7781 43.826 24.6758 43.9434 24.4712C44.0608 24.2667 44.1196 23.975 44.1196 23.5962C44.1196 23.3443 44.0926 23.1299 44.0386 22.9528C43.9856 22.7757 43.9089 22.6407 43.8085 22.5479C43.709 22.4551 43.5892 22.4087 43.4491 22.4087C43.2389 22.4087 43.0746 22.5124 42.9562 22.7198C42.8378 22.9263 42.7786 23.2184 42.7786 23.5962C42.7786 23.8481 42.8052 24.0621 42.8582 24.2383C42.9112 24.4144 42.9874 24.5484 43.0869 24.6403C43.1873 24.7321 43.308 24.7781 43.4491 24.7781Z" fill="#14BBC7"/>
<defs>
<linearGradient id="paint0_linear_2347_33" x1="32.6197" y1="12.3428" x2="32.6197" y2="48.5999" gradientUnits="userSpaceOnUse">
<stop stop-color="#1FC9FF"/>
<stop offset="0.5" stop-color="#95E6FD"/>
<stop offset="0.93" stop-color="#FBFFFB"/>
</linearGradient>
<linearGradient id="paint1_linear_2347_33" x1="32.6197" y1="40.8857" x2="32.6197" y2="54" gradientUnits="userSpaceOnUse">
<stop stop-color="#95E6FD"/>
<stop offset="0.555" stop-color="#FBFFFB"/>
</linearGradient>
</defs>
</svg>