   <svg width="46" height="31" viewBox="0 0 46 31" fill="none" xmlns="http://www.w3.org/2000/svg">
<mask id="path-1-inside-1_2348_66" fill="white">
<path fill-rule="evenodd" clip-rule="evenodd" d="M33.12 0H25.024V31H33.12V0ZM8.096 2.87025H0V30.9999H8.096V2.87025ZM20.976 10.9074H12.88V31H20.976V10.9074ZM37.904 17.7963H46V31H37.904V17.7963Z"/>
</mask>
<path fill-rule="evenodd" clip-rule="evenodd" d="M33.12 0H25.024V31H33.12V0ZM8.096 2.87025H0V30.9999H8.096V2.87025ZM20.976 10.9074H12.88V31H20.976V10.9074ZM37.904 17.7963H46V31H37.904V17.7963Z" fill="url(#paint0_linear_2348_66)"/>
<path d="M25.024 0V-1H24.024V0H25.024ZM33.12 0H34.12V-1H33.12V0ZM25.024 31H24.024V32H25.024V31ZM33.12 31V32H34.12V31H33.12ZM0 2.87025V1.87025H-1V2.87025H0ZM8.096 2.87025H9.096V1.87025H8.096V2.87025ZM0 30.9999H-1V31.9999H0V30.9999ZM8.096 30.9999V31.9999H9.096V30.9999H8.096ZM12.88 10.9074V9.90744H11.88V10.9074H12.88ZM20.976 10.9074H21.976V9.90744H20.976V10.9074ZM12.88 31H11.88V32H12.88V31ZM20.976 31V32H21.976V31H20.976ZM46 17.7963H47V16.7963H46V17.7963ZM37.904 17.7963V16.7963H36.904V17.7963H37.904ZM46 31V32H47V31H46ZM37.904 31H36.904V32H37.904V31ZM25.024 1H33.12V-1H25.024V1ZM26.024 31V0H24.024V31H26.024ZM33.12 30H25.024V32H33.12V30ZM32.12 0V31H34.12V0H32.12ZM0 3.87025H8.096V1.87025H0V3.87025ZM1 30.9999V2.87025H-1V30.9999H1ZM8.096 29.9999H0V31.9999H8.096V29.9999ZM7.096 2.87025V30.9999H9.096V2.87025H7.096ZM12.88 11.9074H20.976V9.90744H12.88V11.9074ZM13.88 31V10.9074H11.88V31H13.88ZM20.976 30H12.88V32H20.976V30ZM19.976 10.9074V31H21.976V10.9074H19.976ZM46 16.7963H37.904V18.7963H46V16.7963ZM47 31V17.7963H45V31H47ZM37.904 32H46V30H37.904V32ZM36.904 17.7963V31H38.904V17.7963H36.904Z" fill="#FAC818" mask="url(#path-1-inside-1_2348_66)"/>
<defs>
<linearGradient id="paint0_linear_2348_66" x1="29.072" y1="0" x2="29.072" y2="31" gradientUnits="userSpaceOnUse">
<stop stop-color="#FFF500"/>
<stop offset="0.705" stop-color="#FFF970"/>
<stop offset="1" stop-color="white"/>
</linearGradient>
</defs>
</svg>