    <svg width="55" height="41" viewBox="0 0 55 41" fill="none" xmlns="http://www.w3.org/2000/svg">
<mask id="path-1-inside-1_2352_28" fill="white">
<path fill-rule="evenodd" clip-rule="evenodd" d="M54.9092 11.2896L43.1588 22.9565L43.1134 15.6383L13.3698 15.9286L13.3323 6.78777L43.0568 6.49758L43.0165 0L54.9092 11.2896ZM0 28.6069L11.798 17.0549L11.8133 24.3745H41.5576V33.5156H11.8326L11.8462 40.0124L0 28.6069Z"/>
</mask>
<path fill-rule="evenodd" clip-rule="evenodd" d="M54.9092 11.2896L43.1588 22.9565L43.1134 15.6383L13.3698 15.9286L13.3323 6.78777L43.0568 6.49758L43.0165 0L54.9092 11.2896ZM0 28.6069L11.798 17.0549L11.8133 24.3745H41.5576V33.5156H11.8326L11.8462 40.0124L0 28.6069Z" fill="url(#paint0_linear_2352_28)"/>
<path d="M43.1588 22.9565L42.1588 22.9627L42.1736 25.344L43.8634 23.6662L43.1588 22.9565ZM54.9092 11.2896L55.6138 11.9992L56.3447 11.2735L55.5977 10.5643L54.9092 11.2896ZM43.1134 15.6383L44.1134 15.6321L44.1072 14.6285L43.1037 14.6383L43.1134 15.6383ZM13.3698 15.9286L12.3698 15.9327L12.3739 16.9384L13.3795 16.9286L13.3698 15.9286ZM13.3323 6.78777L13.3225 5.78781L12.3282 5.79752L12.3323 6.79187L13.3323 6.78777ZM43.0568 6.49758L43.0665 7.49753L44.0629 7.4878L44.0567 6.49138L43.0568 6.49758ZM43.0165 0L43.7049 -0.725259L42.0019 -2.34191L42.0165 0.00620078L43.0165 0ZM11.798 17.0549L12.798 17.0528L12.793 14.6811L11.0983 16.3404L11.798 17.0549ZM0 28.6069L-0.69962 27.8924L-1.43552 28.613L-0.693578 29.3273L0 28.6069ZM11.8133 24.3745L10.8133 24.3766L10.8154 25.3745H11.8133V24.3745ZM41.5576 24.3745H42.5576V23.3745H41.5576V24.3745ZM41.5576 33.5156V34.5156H42.5576V33.5156H41.5576ZM11.8326 33.5156V32.5156H10.8304L10.8326 33.5177L11.8326 33.5156ZM11.8462 40.0124L11.1526 40.7328L12.8512 42.3681L12.8462 40.0103L11.8462 40.0124ZM43.8634 23.6662L55.6138 11.9992L54.2046 10.58L42.4542 22.2469L43.8634 23.6662ZM42.1135 15.6445L42.1588 22.9627L44.1588 22.9503L44.1134 15.6321L42.1135 15.6445ZM13.3795 16.9286L43.1232 16.6382L43.1037 14.6383L13.36 14.9287L13.3795 16.9286ZM12.3323 6.79187L12.3698 15.9327L14.3698 15.9245L14.3323 6.78367L12.3323 6.79187ZM43.047 5.49763L13.3225 5.78781L13.342 7.78772L43.0665 7.49753L43.047 5.49763ZM42.0165 0.00620078L42.0568 6.50378L44.0567 6.49138L44.0164 -0.00620078L42.0165 0.00620078ZM55.5977 10.5643L43.7049 -0.725259L42.328 0.725259L54.2207 12.0148L55.5977 10.5643ZM11.0983 16.3404L-0.69962 27.8924L0.69962 29.3214L12.4976 17.7694L11.0983 16.3404ZM12.8133 24.3724L12.798 17.0528L10.798 17.057L10.8133 24.3766L12.8133 24.3724ZM41.5576 23.3745H11.8133V25.3745H41.5576V23.3745ZM42.5576 33.5156V24.3745H40.5576V33.5156H42.5576ZM11.8326 34.5156H41.5576V32.5156H11.8326V34.5156ZM12.8462 40.0103L12.8325 33.5135L10.8326 33.5177L10.8462 40.0145L12.8462 40.0103ZM-0.693578 29.3273L11.1526 40.7328L12.5398 39.292L0.693578 27.8865L-0.693578 29.3273Z" fill="white" mask="url(#path-1-inside-1_2352_28)"/>
<defs>
<linearGradient id="paint0_linear_2352_28" x1="27.4546" y1="0" x2="27.4546" y2="40.0124" gradientUnits="userSpaceOnUse">
<stop stop-color="#930ABC"/>
<stop offset="0.29" stop-color="#9B38B8"/>
<stop offset="1" stop-color="white"/>
</linearGradient>
</defs>
</svg>