<svg width="46" height="31" viewBox="0 0 46 31" fill="none" xmlns="http://www.w3.org/2000/svg">
<mask id="path-1-inside-1_2352_195" fill="white">
<path fill-rule="evenodd" clip-rule="evenodd" d="M33.12 0H25.024V31H33.12V0ZM8.096 2.87025H0V30.9999H8.096V2.87025ZM20.976 10.9074H12.88V31H20.976V10.9074ZM37.904 17.7963H46V31H37.904V17.7963Z"/>
</mask>
<path fill-rule="evenodd" clip-rule="evenodd" d="M33.12 0H25.024V31H33.12V0ZM8.096 2.87025H0V30.9999H8.096V2.87025ZM20.976 10.9074H12.88V31H20.976V10.9074ZM37.904 17.7963H46V31H37.904V17.7963Z" fill="url(#paint0_linear_2352_195)"/>
<path d="M25.024 0V-2H23.024V0H25.024ZM33.12 0H35.12V-2H33.12V0ZM25.024 31H23.024V33H25.024V31ZM33.12 31V33H35.12V31H33.12ZM0 2.87025V0.870249H-2V2.87025H0ZM8.096 2.87025H10.096V0.870249H8.096V2.87025ZM0 30.9999H-2V32.9999H0V30.9999ZM8.096 30.9999V32.9999H10.096V30.9999H8.096ZM12.88 10.9074V8.90744H10.88V10.9074H12.88ZM20.976 10.9074H22.976V8.90744H20.976V10.9074ZM12.88 31H10.88V33H12.88V31ZM20.976 31V33H22.976V31H20.976ZM46 17.7963H48V15.7963H46V17.7963ZM37.904 17.7963V15.7963H35.904V17.7963H37.904ZM46 31V33H48V31H46ZM37.904 31H35.904V33H37.904V31ZM25.024 2H33.12V-2H25.024V2ZM27.024 31V0H23.024V31H27.024ZM33.12 29H25.024V33H33.12V29ZM31.12 0V31H35.12V0H31.12ZM0 4.87025H8.096V0.870249H0V4.87025ZM2 30.9999V2.87025H-2V30.9999H2ZM8.096 28.9999H0V32.9999H8.096V28.9999ZM6.096 2.87025V30.9999H10.096V2.87025H6.096ZM12.88 12.9074H20.976V8.90744H12.88V12.9074ZM14.88 31V10.9074H10.88V31H14.88ZM20.976 29H12.88V33H20.976V29ZM18.976 10.9074V31H22.976V10.9074H18.976ZM46 15.7963H37.904V19.7963H46V15.7963ZM48 31V17.7963H44V31H48ZM37.904 33H46V29H37.904V33ZM35.904 17.7963V31H39.904V17.7963H35.904Z" fill="white" mask="url(#path-1-inside-1_2352_195)"/>
<defs>
<linearGradient id="paint0_linear_2352_195" x1="29.072" y1="0" x2="29.072" y2="31" gradientUnits="userSpaceOnUse">
<stop stop-color="#F730D7"/>
<stop offset="0.525" stop-color="#FB95EA"/>
<stop offset="1" stop-color="white"/>
</linearGradient>
</defs>
</svg>